<svg width="1338" height="604" viewBox="0 0 1338 604" fill="none" xmlns="http://www.w3.org/2000/svg">
<g clip-path="url(#clip0_252_3509)">
<path d="M622 256H285C280.493 255.995 276.172 254.202 272.985 251.015C269.798 247.828 268.005 243.507 268 239V50C268.005 45.4929 269.798 41.1718 272.985 37.9848C276.172 34.7977 280.493 33.0051 285 33H622C626.507 33.0051 630.828 34.7978 634.015 37.9848C637.202 41.1718 638.995 45.4929 639 50V239C638.995 243.507 637.202 247.828 634.015 251.015C630.828 254.202 626.507 255.995 622 256V256ZM285 35C281.023 35.0045 277.21 36.5863 274.398 39.3984C271.586 42.2104 270.004 46.0231 270 50V239C270.004 242.977 271.586 246.79 274.398 249.602C277.21 252.414 281.023 253.996 285 254H622C625.977 253.996 629.79 252.414 632.602 249.602C635.414 246.79 636.996 242.977 637 239V50C636.996 46.0231 635.414 42.2104 632.602 39.3984C629.79 36.5863 625.977 35.0045 622 35H285Z" fill="#E6E6E6"/>
<path d="M536.601 108.313H471.601C470.407 108.313 469.262 108.787 468.419 109.631C467.575 110.475 467.101 111.62 467.101 112.813C467.101 114.006 467.575 115.151 468.419 115.995C469.262 116.839 470.407 117.313 471.601 117.313H536.601C537.794 117.313 538.939 116.839 539.783 115.995C540.626 115.151 541.101 114.006 541.101 112.813C541.101 111.62 540.626 110.475 539.783 109.631C538.939 108.787 537.794 108.313 536.601 108.313Z" fill="#E6E6E6"/>
<path d="M599.96 136.813H470.741C468.73 136.813 467.101 138.833 467.101 141.313C467.101 143.793 468.73 145.813 470.741 145.813H599.96C601.971 145.813 603.601 143.793 603.601 141.313C603.601 138.833 601.971 136.813 599.96 136.813Z" fill="#E6E6E6"/>
<path d="M599.96 166H470.741C468.73 166 467.101 168.02 467.101 170.5C467.101 172.98 468.73 175 470.741 175H599.96C601.971 175 603.601 172.98 603.601 170.5C603.601 168.02 601.971 166 599.96 166Z" fill="#E6E6E6"/>
<path d="M422 214.5H310C307.216 214.497 304.547 213.39 302.579 211.421C300.61 209.453 299.503 206.784 299.5 204V79C299.503 76.2162 300.61 73.5473 302.579 71.5789C304.547 69.6104 307.216 68.5032 310 68.5H422C424.784 68.5032 427.453 69.6104 429.421 71.5789C431.39 73.5473 432.497 76.2162 432.5 79V204C432.497 206.784 431.39 209.453 429.421 211.421C427.453 213.39 424.784 214.497 422 214.5V214.5Z" fill="#E6E6E6"/>
<path d="M630 72C649.882 72 666 55.8823 666 36C666 16.1177 649.882 0 630 0C610.118 0 594 16.1177 594 36C594 55.8823 610.118 72 630 72Z" fill="#E6E6E6"/>
<path d="M1100 256H763C758.493 255.995 754.172 254.202 750.985 251.015C747.798 247.828 746.005 243.507 746 239V50C746.005 45.4929 747.798 41.1718 750.985 37.9848C754.172 34.7977 758.493 33.0051 763 33H1100C1104.51 33.0051 1108.83 34.7978 1112.02 37.9848C1115.2 41.1718 1116.99 45.4929 1117 50V239C1116.99 243.507 1115.2 247.828 1112.02 251.015C1108.83 254.202 1104.51 255.995 1100 256V256ZM763 35C759.023 35.0045 755.21 36.5863 752.398 39.3984C749.586 42.2104 748.004 46.0231 748 50V239C748.004 242.977 749.586 246.79 752.398 249.602C755.21 252.414 759.023 253.996 763 254H1100C1103.98 253.996 1107.79 252.414 1110.6 249.602C1113.41 246.79 1115 242.977 1115 239V50C1115 46.0231 1113.41 42.2104 1110.6 39.3984C1107.79 36.5863 1103.98 35.0045 1100 35H763Z" fill="#3F3D56"/>
<path d="M1014.6 108.313H949.601C948.407 108.313 947.262 108.787 946.419 109.631C945.575 110.475 945.101 111.62 945.101 112.813C945.101 114.006 945.575 115.151 946.419 115.995C947.262 116.839 948.407 117.313 949.601 117.313H1014.6C1015.79 117.313 1016.94 116.839 1017.78 115.995C1018.63 115.151 1019.1 114.006 1019.1 112.813C1019.1 111.62 1018.63 110.475 1017.78 109.631C1016.94 108.787 1015.79 108.313 1014.6 108.313V108.313Z" fill="#3F3D56"/>
<path d="M1077.96 136.813H948.741C946.73 136.813 945.101 138.833 945.101 141.313C945.101 143.793 946.73 145.813 948.741 145.813H1077.96C1079.97 145.813 1081.6 143.793 1081.6 141.313C1081.6 138.833 1079.97 136.813 1077.96 136.813Z" fill="#3F3D56"/>
<path d="M1077.96 166H948.741C946.73 166 945.101 168.02 945.101 170.5C945.101 172.98 946.73 175 948.741 175H1077.96C1079.97 175 1081.6 172.98 1081.6 170.5C1081.6 168.02 1079.97 166 1077.96 166Z" fill="#3F3D56"/>
<path d="M900 214.5H788C785.216 214.497 782.547 213.39 780.579 211.421C778.61 209.453 777.503 206.784 777.5 204V79C777.503 76.2162 778.61 73.5473 780.579 71.5789C782.547 69.6104 785.216 68.5032 788 68.5H900C902.784 68.5032 905.453 69.6104 907.421 71.5789C909.39 73.5473 910.497 76.2162 910.5 79V204C910.497 206.784 909.39 209.453 907.421 211.421C905.453 213.39 902.784 214.497 900 214.5Z" fill="#E48D36"/>
<path d="M1108 72C1127.88 72 1144 55.8823 1144 36C1144 16.1177 1127.88 0 1108 0C1088.12 0 1072 16.1177 1072 36C1072 55.8823 1088.12 72 1108 72Z" fill="#E48D36"/>
<path d="M1105.98 50.5733C1104.99 50.5752 1104.04 50.2577 1103.25 49.6689L1103.21 49.6323L1092.95 41.7819C1092.48 41.4185 1092.08 40.9648 1091.77 40.4468C1091.47 39.9287 1091.28 39.3564 1091.2 38.7627C1091.12 38.169 1091.16 37.5655 1091.31 36.9867C1091.47 36.4079 1091.73 35.8653 1092.1 35.3899C1092.46 34.9144 1092.92 34.5154 1093.44 34.2158C1093.96 33.9162 1094.53 33.7219 1095.12 33.6439C1095.72 33.5658 1096.32 33.6057 1096.9 33.7612C1097.48 33.9166 1098.02 34.1847 1098.49 34.5499L1105.13 39.6425L1120.83 19.1742C1121.19 18.6994 1121.65 18.301 1122.16 18.0017C1122.68 17.7024 1123.25 17.5081 1123.85 17.4298C1124.44 17.3515 1125.04 17.3908 1125.62 17.5454C1126.2 17.7001 1126.74 17.9671 1127.22 18.3311L1127.12 18.4636L1127.22 18.333C1128.18 19.069 1128.8 20.1548 1128.96 21.3521C1129.12 22.5495 1128.8 23.7606 1128.06 24.7199L1109.6 48.7955C1109.17 49.3503 1108.62 49.7993 1108 50.1076C1107.37 50.4159 1106.68 50.5753 1105.98 50.5733V50.5733Z" fill="white"/>
<path d="M622 554H285C280.493 553.995 276.172 552.202 272.985 549.015C269.798 545.828 268.005 541.507 268 537V348C268.005 343.493 269.798 339.172 272.985 335.985C276.172 332.798 280.493 331.005 285 331H622C626.507 331.005 630.828 332.798 634.015 335.985C637.202 339.172 638.995 343.493 639 348V537C638.995 541.507 637.202 545.828 634.015 549.015C630.828 552.202 626.507 553.995 622 554V554ZM285 333C281.023 333.004 277.21 334.586 274.398 337.398C271.586 340.21 270.004 344.023 270 348V537C270.004 540.977 271.586 544.79 274.398 547.602C277.21 550.414 281.023 551.996 285 552H622C625.977 551.996 629.79 550.414 632.602 547.602C635.414 544.79 636.996 540.977 637 537V348C636.996 344.023 635.414 340.21 632.602 337.398C629.79 334.586 625.977 333.004 622 333H285Z" fill="#3F3D56"/>
<path d="M536.601 406.313H471.601C470.407 406.313 469.262 406.787 468.419 407.631C467.575 408.475 467.101 409.62 467.101 410.813C467.101 412.006 467.575 413.151 468.419 413.995C469.262 414.839 470.407 415.313 471.601 415.313H536.601C537.794 415.313 538.939 414.839 539.783 413.995C540.626 413.151 541.101 412.006 541.101 410.813C541.101 409.62 540.626 408.475 539.783 407.631C538.939 406.787 537.794 406.313 536.601 406.313Z" fill="#3F3D56"/>
<path d="M599.96 434.813H470.741C468.73 434.813 467.101 436.833 467.101 439.313C467.101 441.793 468.73 443.813 470.741 443.813H599.96C601.971 443.813 603.601 441.793 603.601 439.313C603.601 436.833 601.971 434.813 599.96 434.813Z" fill="#3F3D56"/>
<path d="M599.96 464H470.741C468.73 464 467.101 466.02 467.101 468.5C467.101 470.98 468.73 473 470.741 473H599.96C601.971 473 603.601 470.98 603.601 468.5C603.601 466.02 601.971 464 599.96 464Z" fill="#3F3D56"/>
<path d="M422 512.5H310C307.216 512.497 304.547 511.39 302.579 509.421C300.61 507.453 299.503 504.784 299.5 502V377C299.503 374.216 300.61 371.547 302.579 369.579C304.547 367.61 307.216 366.503 310 366.5H422C424.784 366.503 427.453 367.61 429.421 369.579C431.39 371.547 432.497 374.216 432.5 377V502C432.497 504.784 431.39 507.453 429.421 509.421C427.453 511.39 424.784 512.497 422 512.5V512.5Z" fill="#E48D36"/>
<path d="M630 370C649.882 370 666 353.882 666 334C666 314.118 649.882 298 630 298C610.118 298 594 314.118 594 334C594 353.882 610.118 370 630 370Z" fill="#E48D36"/>
<path d="M627.976 348.573C626.995 348.575 626.039 348.258 625.254 347.669L625.205 347.632L614.952 339.782C614.475 339.419 614.076 338.965 613.775 338.447C613.474 337.929 613.279 337.356 613.2 336.763C613.12 336.169 613.159 335.565 613.313 334.987C613.468 334.408 613.735 333.865 614.099 333.39C614.463 332.914 614.918 332.515 615.437 332.216C615.955 331.916 616.528 331.722 617.122 331.644C617.716 331.566 618.319 331.606 618.897 331.761C619.476 331.917 620.018 332.185 620.493 332.55L627.134 337.642L642.829 317.174C643.193 316.699 643.647 316.301 644.165 316.002C644.683 315.702 645.255 315.508 645.848 315.43C646.441 315.352 647.044 315.391 647.621 315.545C648.199 315.7 648.741 315.967 649.216 316.331L649.118 316.464L649.218 316.333C650.176 317.069 650.803 318.155 650.961 319.352C651.119 320.549 650.795 321.761 650.061 322.72L631.601 346.796C631.174 347.35 630.625 347.799 629.996 348.108C629.368 348.416 628.677 348.575 627.976 348.573Z" fill="white"/>
<path d="M1100 554H763C758.493 553.995 754.172 552.202 750.985 549.015C747.798 545.828 746.005 541.507 746 537V348C746.005 343.493 747.798 339.172 750.985 335.985C754.172 332.798 758.493 331.005 763 331H1100C1104.51 331.005 1108.83 332.798 1112.02 335.985C1115.2 339.172 1116.99 343.493 1117 348V537C1116.99 541.507 1115.2 545.828 1112.02 549.015C1108.83 552.202 1104.51 553.995 1100 554V554ZM763 333C759.023 333.004 755.21 334.586 752.398 337.398C749.586 340.21 748.004 344.023 748 348V537C748.004 540.977 749.586 544.79 752.398 547.602C755.21 550.414 759.023 551.996 763 552H1100C1103.98 551.996 1107.79 550.414 1110.6 547.602C1113.41 544.79 1115 540.977 1115 537V348C1115 344.023 1113.41 340.21 1110.6 337.398C1107.79 334.586 1103.98 333.004 1100 333H763Z" fill="#3F3D56"/>
<path d="M1014.6 406.313H949.601C948.407 406.313 947.262 406.787 946.419 407.631C945.575 408.475 945.101 409.62 945.101 410.813C945.101 412.006 945.575 413.151 946.419 413.995C947.262 414.839 948.407 415.313 949.601 415.313H1014.6C1015.79 415.313 1016.94 414.839 1017.78 413.995C1018.63 413.151 1019.1 412.006 1019.1 410.813C1019.1 409.62 1018.63 408.475 1017.78 407.631C1016.94 406.787 1015.79 406.313 1014.6 406.313V406.313Z" fill="#3F3D56"/>
<path d="M1077.96 434.813H948.741C946.73 434.813 945.101 436.833 945.101 439.313C945.101 441.793 946.73 443.813 948.741 443.813H1077.96C1079.97 443.813 1081.6 441.793 1081.6 439.313C1081.6 436.833 1079.97 434.813 1077.96 434.813Z" fill="#3F3D56"/>
<path d="M1077.96 464H948.741C946.73 464 945.101 466.02 945.101 468.5C945.101 470.98 946.73 473 948.741 473H1077.96C1079.97 473 1081.6 470.98 1081.6 468.5C1081.6 466.02 1079.97 464 1077.96 464Z" fill="#3F3D56"/>
<path d="M900 512.5H788C785.216 512.497 782.547 511.39 780.579 509.421C778.61 507.453 777.503 504.784 777.5 502V377C777.503 374.216 778.61 371.547 780.579 369.579C782.547 367.61 785.216 366.503 788 366.5H900C902.784 366.503 905.453 367.61 907.421 369.579C909.39 371.547 910.497 374.216 910.5 377V502C910.497 504.784 909.39 507.453 907.421 509.421C905.453 511.39 902.784 512.497 900 512.5V512.5Z" fill="#E48D36"/>
<path d="M847.703 189.663C845.181 189.593 842.041 189.504 839.625 187.739C838.905 187.191 838.313 186.493 837.891 185.693C837.47 184.892 837.228 184.01 837.183 183.106C837.14 182.464 837.245 181.821 837.491 181.226C837.738 180.632 838.118 180.102 838.603 179.679C839.323 179.141 840.167 178.792 841.056 178.664C841.946 178.536 842.854 178.633 843.697 178.946L841.638 163.898L843.149 163.691L845.57 181.381L844.308 180.802C842.845 180.131 840.836 179.79 839.587 180.844C839.281 181.12 839.042 181.463 838.89 181.845C838.737 182.228 838.675 182.641 838.708 183.052C838.745 183.725 838.926 184.381 839.24 184.977C839.553 185.573 839.991 186.095 840.525 186.507C842.405 187.881 844.907 188.058 847.746 188.138L847.703 189.663Z" fill="white"/>
<path d="M834.163 165.196H825.946V166.721H834.163V165.196Z" fill="white"/>
<path d="M860.099 165.196H851.882V166.721H860.099V165.196Z" fill="white"/>
<path d="M811.67 144.128C805.053 143.374 799.929 137.034 799.366 130.601C798.696 122.948 803.153 115.68 809.267 111.385C815.661 106.894 823.628 105.019 831.336 104.606C846.373 103.858 861.15 108.728 872.795 118.271C878.57 123.068 883.965 129.179 886.009 136.559C887.784 142.969 886.34 150.231 881.184 154.72C879.909 155.82 878.419 156.644 876.81 157.14C875.2 157.636 873.505 157.792 871.832 157.6C867.832 157.184 864.141 155.081 860.946 152.758C854.731 148.24 849.629 141.945 842.058 139.584C836.506 137.852 829.302 139.376 825.909 144.397C825.139 145.546 824.64 146.855 824.45 148.225C824.38 148.517 824.424 148.825 824.572 149.087C824.72 149.348 824.963 149.543 825.249 149.633C825.542 149.711 825.854 149.672 826.117 149.522C826.381 149.372 826.575 149.125 826.657 148.833C827.548 142.51 835.323 140.15 840.779 141.595C848.734 143.7 854.074 150.799 860.601 155.309C863.98 157.828 867.96 159.417 872.145 159.917C875.773 160.201 879.374 159.095 882.217 156.822C887.793 152.419 889.925 144.846 888.692 138.028C887.264 130.133 881.95 123.366 876.119 118.127C864.298 107.618 848.952 101.948 833.138 102.249C825.072 102.434 816.656 104.099 809.708 108.362C802.967 112.497 797.758 119.416 797.077 127.457C796.478 134.536 800.275 141.939 806.794 145.04C808.331 145.768 809.98 146.233 811.67 146.417C813.131 146.583 813.119 144.293 811.67 144.128H811.67Z" fill="white"/>
<path d="M847.703 483.663C845.181 483.593 842.041 483.504 839.625 481.739C838.905 481.191 838.313 480.493 837.891 479.693C837.47 478.892 837.228 478.01 837.183 477.106C837.14 476.464 837.245 475.821 837.491 475.226C837.738 474.632 838.118 474.102 838.603 473.679C839.323 473.141 840.167 472.792 841.056 472.664C841.946 472.536 842.854 472.633 843.697 472.946L841.638 457.898L843.149 457.691L845.57 475.381L844.308 474.802C842.845 474.131 840.836 473.79 839.587 474.844C839.281 475.12 839.042 475.463 838.89 475.845C838.737 476.228 838.675 476.641 838.708 477.052C838.745 477.725 838.926 478.381 839.24 478.977C839.553 479.573 839.991 480.095 840.525 480.507C842.405 481.881 844.907 482.058 847.746 482.138L847.703 483.663Z" fill="white"/>
<path d="M834.163 459.196H825.946V460.721H834.163V459.196Z" fill="white"/>
<path d="M860.099 459.196H851.882V460.721H860.099V459.196Z" fill="white"/>
<path d="M811.67 438.128C805.053 437.373 799.929 431.034 799.366 424.601C798.696 416.948 803.153 409.679 809.267 405.385C815.661 400.894 823.628 399.019 831.336 398.606C846.373 397.858 861.15 402.728 872.795 412.271C878.57 417.068 883.965 423.179 886.009 430.559C887.784 436.969 886.34 444.231 881.184 448.72C879.909 449.82 878.419 450.644 876.81 451.14C875.2 451.635 873.505 451.792 871.832 451.6C867.832 451.184 864.141 449.081 860.946 446.758C854.731 442.24 849.629 435.945 842.058 433.583C836.506 431.852 829.302 433.376 825.909 438.397C825.139 439.546 824.64 440.855 824.45 442.225C824.38 442.517 824.424 442.825 824.572 443.086C824.72 443.348 824.963 443.543 825.249 443.633C825.542 443.711 825.854 443.672 826.117 443.522C826.381 443.372 826.575 443.125 826.657 442.833C827.548 436.51 835.323 434.15 840.779 435.594C848.734 437.7 854.074 444.799 860.601 449.309C863.98 451.828 867.96 453.417 872.145 453.917C875.773 454.201 879.374 453.095 882.217 450.822C887.793 446.419 889.925 438.846 888.692 432.028C887.264 424.133 881.95 417.366 876.119 412.127C864.298 401.618 848.952 395.948 833.138 396.249C825.072 396.434 816.656 398.099 809.708 402.362C802.967 406.497 797.758 413.416 797.077 421.457C796.478 428.536 800.275 435.939 806.794 439.04C808.331 439.768 809.98 440.233 811.67 440.417C813.131 440.583 813.119 438.293 811.67 438.128H811.67Z" fill="white"/>
<path d="M364.703 483.663C362.181 483.593 359.041 483.504 356.625 481.739C355.905 481.191 355.313 480.493 354.891 479.693C354.47 478.892 354.228 478.01 354.183 477.106C354.14 476.464 354.245 475.821 354.491 475.226C354.738 474.632 355.118 474.102 355.603 473.679C356.323 473.141 357.167 472.792 358.056 472.664C358.946 472.536 359.854 472.633 360.697 472.946L358.638 457.898L360.149 457.691L362.57 475.381L361.308 474.802C359.845 474.131 357.836 473.79 356.587 474.844C356.281 475.12 356.042 475.463 355.89 475.845C355.737 476.228 355.675 476.641 355.708 477.052C355.745 477.725 355.926 478.381 356.24 478.977C356.553 479.573 356.992 480.095 357.525 480.507C359.405 481.881 361.908 482.058 364.746 482.138L364.703 483.663Z" fill="white"/>
<path d="M351.163 459.196H342.946V460.721H351.163V459.196Z" fill="white"/>
<path d="M377.099 459.196H368.882V460.721H377.099V459.196Z" fill="white"/>
<path d="M328.67 438.128C322.053 437.373 316.929 431.034 316.366 424.601C315.696 416.948 320.153 409.679 326.267 405.385C332.661 400.894 340.628 399.019 348.336 398.606C363.373 397.858 378.15 402.728 389.795 412.271C395.57 417.068 400.965 423.179 403.009 430.559C404.784 436.969 403.34 444.231 398.184 448.72C396.909 449.82 395.419 450.644 393.81 451.14C392.2 451.635 390.505 451.792 388.832 451.6C384.832 451.184 381.141 449.081 377.946 446.758C371.731 442.24 366.629 435.945 359.058 433.583C353.506 431.852 346.302 433.376 342.909 438.397C342.139 439.546 341.64 440.855 341.45 442.225C341.38 442.517 341.424 442.825 341.572 443.086C341.72 443.348 341.963 443.543 342.249 443.633C342.542 443.711 342.854 443.672 343.117 443.522C343.381 443.372 343.575 443.125 343.657 442.833C344.548 436.51 352.323 434.15 357.779 435.594C365.734 437.7 371.074 444.799 377.601 449.309C380.98 451.828 384.96 453.417 389.145 453.917C392.773 454.201 396.374 453.095 399.217 450.822C404.793 446.419 406.925 438.846 405.692 432.028C404.264 424.133 398.95 417.366 393.119 412.127C381.298 401.618 365.952 395.948 350.138 396.249C342.072 396.434 333.656 398.099 326.708 402.362C319.967 406.497 314.758 413.416 314.077 421.457C313.478 428.536 317.275 435.939 323.794 439.04C325.331 439.768 326.979 440.233 328.67 440.417C330.131 440.583 330.119 438.293 328.67 438.128H328.67Z" fill="white"/>
<path d="M364.703 191.663C362.181 191.593 359.041 191.504 356.625 189.739C355.905 189.191 355.313 188.493 354.891 187.693C354.47 186.892 354.228 186.01 354.183 185.106C354.14 184.464 354.245 183.821 354.491 183.226C354.738 182.632 355.118 182.102 355.603 181.679C356.323 181.141 357.167 180.792 358.056 180.664C358.946 180.536 359.854 180.633 360.697 180.946L358.638 165.898L360.149 165.691L362.57 183.381L361.308 182.802C359.845 182.131 357.836 181.79 356.587 182.844C356.281 183.12 356.042 183.463 355.89 183.845C355.737 184.228 355.675 184.641 355.708 185.052C355.745 185.725 355.926 186.381 356.24 186.977C356.553 187.573 356.992 188.095 357.525 188.507C359.405 189.881 361.908 190.058 364.746 190.138L364.703 191.663Z" fill="#3F3D56"/>
<path d="M351.163 167.196H342.946V168.721H351.163V167.196Z" fill="#3F3D56"/>
<path d="M377.099 167.196H368.882V168.721H377.099V167.196Z" fill="#3F3D56"/>
<path d="M328.67 146.128C322.053 145.374 316.929 139.034 316.366 132.601C315.696 124.948 320.153 117.68 326.267 113.385C332.661 108.894 340.628 107.019 348.336 106.606C363.373 105.858 378.15 110.728 389.795 120.271C395.57 125.068 400.965 131.179 403.009 138.559C404.784 144.969 403.34 152.231 398.184 156.72C396.909 157.82 395.419 158.644 393.81 159.14C392.2 159.636 390.505 159.792 388.832 159.6C384.832 159.184 381.141 157.081 377.946 154.758C371.731 150.24 366.629 143.945 359.058 141.584C353.506 139.852 346.302 141.376 342.909 146.397C342.139 147.546 341.64 148.855 341.45 150.225C341.38 150.517 341.424 150.825 341.572 151.087C341.72 151.348 341.963 151.543 342.249 151.633C342.542 151.711 342.854 151.672 343.117 151.522C343.381 151.372 343.575 151.125 343.657 150.833C344.548 144.51 352.323 142.15 357.779 143.595C365.734 145.7 371.074 152.799 377.601 157.309C380.98 159.828 384.96 161.417 389.145 161.917C392.773 162.201 396.374 161.095 399.217 158.822C404.793 154.419 406.925 146.846 405.692 140.028C404.264 132.133 398.95 125.366 393.119 120.127C381.298 109.618 365.952 103.948 350.138 104.249C342.072 104.434 333.656 106.099 326.708 110.362C319.967 114.497 314.758 121.416 314.077 129.457C313.478 136.536 317.275 143.939 323.794 147.04C325.331 147.768 326.979 148.233 328.67 148.417C330.131 148.583 330.119 146.293 328.67 146.128H328.67Z" fill="#3F3D56"/>
</g>
<path d="M1156 351C1175.88 351 1192 334.882 1192 315C1192 295.118 1175.88 279 1156 279C1136.12 279 1120 295.118 1120 315C1120 334.882 1136.12 351 1156 351Z" fill="#E48D36"/>
<path d="M1153.98 329.573C1152.99 329.575 1152.04 329.258 1151.25 328.669L1151.21 328.632L1140.95 320.782C1140.48 320.419 1140.08 319.965 1139.77 319.447C1139.47 318.929 1139.28 318.356 1139.2 317.763C1139.12 317.169 1139.16 316.565 1139.31 315.987C1139.47 315.408 1139.73 314.865 1140.1 314.39C1140.46 313.914 1140.92 313.515 1141.44 313.216C1141.96 312.916 1142.53 312.722 1143.12 312.644C1143.72 312.566 1144.32 312.606 1144.9 312.761C1145.48 312.917 1146.02 313.185 1146.49 313.55L1153.13 318.642L1168.83 298.174C1169.19 297.699 1169.65 297.301 1170.16 297.002C1170.68 296.702 1171.25 296.508 1171.85 296.43C1172.44 296.352 1173.04 296.391 1173.62 296.545C1174.2 296.7 1174.74 296.967 1175.22 297.331L1175.12 297.464L1175.22 297.333C1176.18 298.069 1176.8 299.155 1176.96 300.352C1177.12 301.549 1176.8 302.761 1176.06 303.72L1157.6 327.796C1157.17 328.35 1156.62 328.799 1156 329.108C1155.37 329.416 1154.68 329.575 1153.98 329.573V329.573Z" fill="white"/>
<path d="M1279.54 402.086L1176.27 335.243C1175.56 334.78 1174.94 334.179 1174.46 333.477C1173.97 332.774 1173.63 331.983 1173.45 331.148C1173.27 330.313 1173.26 329.452 1173.41 328.612C1173.57 327.772 1173.89 326.972 1174.35 326.255L1182.37 313.864C1183.31 312.419 1184.78 311.404 1186.47 311.043C1188.15 310.682 1189.91 311.004 1191.36 311.939L1294.63 378.781C1296.07 379.72 1297.09 381.193 1297.45 382.878C1297.81 384.563 1297.49 386.323 1296.55 387.771L1288.53 400.161C1287.59 401.607 1286.12 402.622 1284.44 402.983C1282.75 403.344 1280.99 403.021 1279.54 402.086V402.086Z" fill="#E48D36"/>
<path d="M1279.85 401.259L1236.68 377.154C1235.33 376.402 1234.33 375.161 1233.87 373.687C1233.41 372.214 1233.54 370.622 1234.23 369.241L1244.23 349.149C1244.63 348.355 1245.19 347.659 1245.89 347.11C1246.59 346.561 1247.39 346.173 1248.26 345.975C1249.12 345.776 1250.02 345.771 1250.89 345.961C1251.75 346.151 1252.57 346.53 1253.27 347.071L1294.39 378.792C1295.73 379.658 1296.66 381.017 1297 382.572C1297.33 384.127 1297.03 385.75 1296.17 387.087L1288.15 399.48C1287.29 400.816 1285.92 401.754 1284.37 402.087C1282.81 402.421 1281.18 402.123 1279.85 401.259V401.259Z" fill="#CCCCCC"/>
<path d="M1284.05 323.811C1313.6 323.811 1337.57 299.85 1337.57 270.292C1337.57 240.734 1313.6 216.773 1284.05 216.773C1254.49 216.773 1230.53 240.734 1230.53 270.292C1230.53 299.85 1254.49 323.811 1284.05 323.811Z" fill="#E48D36"/>
<path d="M1285.98 597.138V474.123C1285.98 472.4 1286.67 470.748 1287.89 469.529C1289.1 468.311 1290.76 467.625 1292.48 467.623H1307.24C1308.96 467.625 1310.61 468.311 1311.83 469.529C1313.05 470.748 1313.74 472.4 1313.74 474.123V597.138C1313.74 598.861 1313.05 600.513 1311.83 601.732C1310.61 602.95 1308.96 603.636 1307.24 603.638H1292.48C1290.76 603.636 1289.1 602.95 1287.89 601.732C1286.67 600.513 1285.98 598.861 1285.98 597.138V597.138Z" fill="#2F2E41"/>
<path d="M1256.79 597.138V474.123C1256.79 472.4 1257.47 470.748 1258.69 469.529C1259.91 468.311 1261.56 467.625 1263.29 467.623H1278.05C1279.77 467.625 1281.42 468.311 1282.64 469.529C1283.86 470.748 1284.54 472.4 1284.55 474.123V597.138C1284.54 598.861 1283.86 600.513 1282.64 601.732C1281.42 602.95 1279.77 603.636 1278.05 603.638H1263.29C1261.56 603.636 1259.91 602.95 1258.69 601.732C1257.47 600.513 1256.79 598.861 1256.79 597.138V597.138Z" fill="#2F2E41"/>
<path d="M1244.62 481.585V339.109C1244.63 337.386 1245.31 335.734 1246.53 334.515C1247.75 333.297 1249.4 332.611 1251.12 332.609H1288.81C1298.32 332.62 1307.44 336.404 1314.17 343.129C1320.89 349.855 1324.68 358.975 1324.69 368.486V481.585C1324.68 483.308 1324 484.96 1322.78 486.179C1321.56 487.398 1319.91 488.083 1318.19 488.085H1251.12C1249.4 488.083 1247.75 487.398 1246.53 486.179C1245.31 484.96 1244.63 483.308 1244.62 481.585Z" fill="#CCCCCC"/>
<path d="M1237.33 285.161L1237.39 283.161C1233.67 283.058 1230.39 282.824 1227.92 281.024C1227.22 280.484 1226.65 279.8 1226.24 279.019C1225.83 278.238 1225.59 277.377 1225.54 276.495C1225.5 275.957 1225.58 275.415 1225.78 274.913C1225.98 274.411 1226.29 273.962 1226.69 273.601C1228.33 272.218 1230.96 272.665 1232.88 273.546L1234.54 274.305L1231.36 251.115L1229.38 251.386L1232.08 271.113C1229.47 270.346 1227.06 270.675 1225.4 272.073C1224.77 272.628 1224.27 273.322 1223.95 274.102C1223.62 274.881 1223.48 275.724 1223.54 276.566C1223.6 277.75 1223.92 278.907 1224.47 279.957C1225.02 281.006 1225.8 281.921 1226.74 282.639C1229.91 284.953 1234.02 285.069 1237.33 285.161Z" fill="#2F2E41"/>
<path d="M1253.58 253.087H1242.81V255.087H1253.58V253.087Z" fill="#2F2E41"/>
<path d="M1219.09 478.499L1206.05 471.58C1204.53 470.77 1203.39 469.39 1202.88 467.743C1202.38 466.095 1202.55 464.314 1203.35 462.791L1261.02 354.13C1261.83 352.609 1263.21 351.471 1264.85 350.966C1266.5 350.461 1268.28 350.63 1269.81 351.436L1282.84 358.355C1284.36 359.164 1285.5 360.544 1286.01 362.191C1286.51 363.839 1286.34 365.619 1285.54 367.143L1227.87 475.804C1227.47 476.559 1226.93 477.227 1226.27 477.772C1225.61 478.316 1224.86 478.725 1224.04 478.976C1223.22 479.226 1222.36 479.313 1221.51 479.231C1220.66 479.149 1219.84 478.9 1219.09 478.499V478.499Z" fill="#E48D36"/>
<path d="M1289.69 366.912L1264.41 412.004C1263.77 413.41 1262.62 414.519 1261.2 415.1C1259.77 415.682 1258.17 415.69 1256.73 415.125L1235.85 406.899C1235.03 406.574 1234.29 406.07 1233.68 405.424C1233.07 404.778 1232.62 404.005 1232.34 403.161C1232.07 402.318 1231.99 401.424 1232.1 400.545C1232.22 399.666 1232.52 398.823 1233 398.076L1261.05 352.362C1261.8 350.959 1263.07 349.909 1264.59 349.443C1266.11 348.976 1267.75 349.13 1269.16 349.872L1287.2 358.793C1288.6 359.54 1289.66 360.815 1290.12 362.337C1290.59 363.86 1290.43 365.505 1289.69 366.912V366.912Z" fill="#CCCCCC"/>
<path d="M1269.1 235.151C1259.92 236.585 1248.82 238.053 1241.92 230.329C1240.55 228.907 1239.6 227.14 1239.16 225.218C1238.72 223.296 1238.81 221.29 1239.42 219.415C1240.75 215.621 1244.18 212.73 1247.78 211.16C1253.16 208.813 1259.29 208.957 1265.04 209.022C1265.43 209.009 1265.8 208.845 1266.07 208.565C1266.34 208.285 1266.49 207.911 1266.49 207.522C1266.49 207.133 1266.34 206.759 1266.07 206.479C1265.8 206.199 1265.43 206.036 1265.04 206.022C1259.17 205.956 1253.03 205.9 1247.47 208.064C1243.1 209.768 1239.05 212.926 1237.07 217.273C1232.73 226.803 1240.75 236.109 1249.8 238.429C1256.41 240.122 1263.27 239.079 1269.9 238.044C1271.8 237.746 1270.99 234.855 1269.1 235.151V235.151Z" fill="#2F2E41"/>
<path d="M131.619 300.771C161.177 300.771 185.138 276.81 185.138 247.252C185.138 217.694 161.177 193.733 131.619 193.733C102.061 193.733 78.1001 217.694 78.1001 247.252C78.1001 276.81 102.061 300.771 131.619 300.771Z" fill="#E48D36"/>
<path d="M123.187 582.598H108.427C106.704 582.596 105.052 581.91 103.833 580.692C102.615 579.473 101.929 577.821 101.927 576.098V453.084C101.929 451.361 102.615 449.709 103.833 448.49C105.052 447.272 106.704 446.586 108.427 446.584H123.187C124.91 446.586 126.562 447.272 127.781 448.49C128.999 449.709 129.685 451.361 129.687 453.084V576.098C129.685 577.821 128.999 579.473 127.781 580.692C126.562 581.91 124.91 582.596 123.187 582.598V582.598Z" fill="#E48D36"/>
<path d="M152.379 582.598H137.619C135.896 582.596 134.244 581.91 133.025 580.692C131.807 579.473 131.121 577.821 131.119 576.098V453.084C131.121 451.361 131.807 449.709 133.025 448.49C134.244 447.272 135.896 446.586 137.619 446.584H152.379C154.102 446.586 155.754 447.272 156.973 448.49C158.191 449.709 158.877 451.361 158.879 453.084V576.098C158.877 577.821 158.191 579.473 156.973 580.692C155.754 581.91 154.102 582.596 152.379 582.598Z" fill="#E48D36"/>
<path d="M14.203 429.024C13.5226 429.023 12.8465 428.916 12.1991 428.706C11.3857 428.446 10.6319 428.027 9.9815 427.474C9.33109 426.92 8.79697 426.243 8.41007 425.482L1.68546 412.343C1.29656 411.583 1.06113 410.754 0.992637 409.903C0.924143 409.053 1.02393 408.197 1.28628 407.384C1.54863 406.572 1.9684 405.819 2.52164 405.169C3.07489 404.519 3.75076 403.985 4.51066 403.596L114.014 347.548C114.774 347.159 115.603 346.924 116.454 346.855C117.305 346.787 118.161 346.886 118.973 347.149C119.786 347.411 120.538 347.831 121.188 348.384C121.839 348.937 122.373 349.613 122.762 350.373L129.487 363.512C130.272 365.046 130.416 366.83 129.886 368.47C129.356 370.111 128.197 371.474 126.663 372.259L17.1581 428.307C16.2439 428.777 15.231 429.023 14.203 429.024V429.024Z" fill="#E48D36"/>
<path d="M164.565 371.97C163.018 371.972 161.522 371.418 160.35 370.409L149.133 360.818C147.825 359.696 147.015 358.101 146.881 356.383C146.746 354.665 147.299 352.964 148.417 351.653L228.366 258.16C229.488 256.852 231.082 256.042 232.8 255.908C234.518 255.774 236.22 256.327 237.53 257.446H237.531L248.748 267.038C249.397 267.593 249.93 268.27 250.317 269.031C250.704 269.792 250.938 270.621 251.004 271.472C251.07 272.323 250.969 273.179 250.704 273.991C250.44 274.802 250.018 275.554 249.463 276.202L169.515 369.695C168.962 370.345 168.285 370.879 167.524 371.266C166.763 371.654 165.933 371.886 165.081 371.951C164.908 371.964 164.736 371.97 164.565 371.97Z" fill="#E48D36"/>
<path d="M133.537 193.726C131.796 176.367 120.387 159.767 102.97 155.249C94.4718 152.993 85.4493 153.811 77.4954 157.56C70.2951 161.192 64.6345 167.284 61.5397 174.731C58.486 182.098 57.3168 190.11 58.1377 198.042C59.0676 206.711 61.8349 215.083 66.2552 222.598C70.9793 230.927 77.1223 238.372 83.5702 245.413C90.1398 252.586 97.5726 259.186 103.101 267.24C108.003 274.382 111.946 284.082 107.114 292.303C105.221 295.317 102.499 297.722 99.2736 299.228C96.0486 300.734 92.4577 301.279 88.9311 300.797C87.2009 300.534 85.5281 299.979 83.9844 299.155C82.2818 298.246 80.7646 300.835 82.4702 301.745C88.9404 305.199 96.9851 304.417 103.098 300.532C110.143 296.055 113.288 288.153 111.967 279.984C110.462 270.671 103.968 262.675 97.7322 255.971C91.2188 248.968 84.397 242.282 78.3639 234.843C72.4046 227.494 67.0839 219.384 63.8942 210.425C61.2151 202.939 60.3214 194.93 61.2842 187.038C62.2346 179.5 65.1653 172.032 70.4236 166.455C73.3305 163.46 76.8104 161.08 80.656 159.457C84.5017 157.835 88.6345 157.002 92.8085 157.01C101.471 156.899 109.871 159.987 116.399 165.683C122.836 171.44 127.378 179.013 129.427 187.402C129.95 189.48 130.321 191.594 130.537 193.726C130.728 195.629 133.73 195.649 133.537 193.726V193.726Z" fill="#2F2E41"/>
<path d="M122.262 193.318C120.955 193.316 119.691 192.849 118.697 192.001C117.703 191.152 117.043 189.977 116.836 188.687C116.63 187.396 116.889 186.074 117.568 184.958C118.248 183.841 119.302 183.003 120.543 182.593L134.787 177.89C136.172 177.433 137.682 177.544 138.985 178.2C140.287 178.856 141.276 180.003 141.733 181.388C142.191 182.773 142.079 184.283 141.423 185.585C140.767 186.888 139.621 187.877 138.236 188.334L123.992 193.037C123.434 193.223 122.85 193.317 122.262 193.318Z" fill="#2F2E41"/>
<path d="M218.425 468.6H51.9439C50.8012 468.604 49.6778 468.306 48.6872 467.737C47.6966 467.168 46.874 466.346 46.3027 465.357C45.7313 464.367 45.4315 463.244 45.4336 462.102C45.4357 460.959 45.7395 459.837 46.3145 458.85L129.555 314.673C129.843 314.174 130.194 313.714 130.601 313.306L130.617 313.29L130.624 313.284C131.535 312.378 132.699 311.769 133.963 311.536C134.047 311.52 134.131 311.505 134.216 311.494C134.537 311.446 134.861 311.423 135.185 311.423V311.423C136.327 311.416 137.45 311.714 138.44 312.285C139.429 312.856 140.248 313.68 140.813 314.673L224.054 458.85C224.625 459.838 224.925 460.959 224.925 462.1C224.925 463.241 224.625 464.362 224.054 465.35C223.484 466.338 222.663 467.159 221.675 467.729C220.687 468.3 219.566 468.6 218.425 468.6V468.6Z" fill="#2F2E41"/>
<path d="M171.445 256.045L171.39 254.045C175.11 253.941 178.391 253.708 180.855 251.907C181.554 251.367 182.129 250.684 182.54 249.902C182.95 249.121 183.188 248.26 183.237 247.379C183.28 246.84 183.199 246.299 182.999 245.797C182.799 245.295 182.486 244.845 182.084 244.484C180.448 243.101 177.815 243.549 175.896 244.429L174.241 245.188L177.415 221.998L179.396 222.269L176.697 241.996C179.305 241.229 181.72 241.558 183.375 242.957C184.01 243.511 184.509 244.206 184.832 244.985C185.154 245.764 185.293 246.607 185.235 247.449C185.177 248.633 184.86 249.791 184.307 250.84C183.755 251.889 182.979 252.804 182.035 253.522C178.868 255.837 174.752 255.952 171.445 256.045Z" fill="#2F2E41"/>
<path d="M165.967 223.97H155.195V225.97H165.967V223.97Z" fill="#2F2E41"/>
<path d="M260 284C280.435 284 297 267.435 297 247C297 226.565 280.435 210 260 210C239.565 210 223 226.565 223 247C223 267.435 239.565 284 260 284Z" fill="#DE1919"/>
<path d="M268.784 232.102L260 241.18L251.216 232.102C249.794 230.633 247.488 230.633 246.066 232.102C244.645 233.572 244.645 235.954 246.066 237.424L254.851 246.501L246.066 255.579C244.646 257.05 244.648 259.432 246.071 260.9C247.493 262.367 249.794 262.367 251.216 260.9L260 251.823L268.784 260.9C270.207 262.368 272.513 262.366 273.934 260.895C275.352 259.427 275.352 257.048 273.934 255.579L265.149 246.501L273.934 237.424C275.355 235.954 275.355 233.572 273.934 232.102C272.512 230.633 270.206 230.633 268.784 232.102V232.102Z" fill="white"/>
<defs>
<clipPath id="clip0_252_3509">
<rect width="876" height="554" fill="white" transform="translate(268)"/>
</clipPath>
</defs>
</svg>
