<svg width="245" height="259" viewBox="0 0 245 259" fill="none" xmlns="http://www.w3.org/2000/svg">
<path d="M194.54 197.255L198.055 212.876C198.055 213.277 198.148 213.58 198.299 213.668C198.528 213.801 199.115 213.74 199.871 213.303L231.271 195.173C232.974 194.191 234.471 191.927 234.556 190.248L231.318 176.02L194.54 197.255ZM198.591 216.672C197.95 216.672 197.351 216.521 196.826 216.217C195.779 215.613 195.16 214.467 195.112 213.055L191.186 195.791L233.306 171.472L237.506 190.1C237.506 192.833 235.415 196.183 232.744 197.724L201.344 215.852C200.403 216.396 199.459 216.672 198.591 216.672" fill="#A37C5A"/>
<path d="M154.723 174.384L154.337 188.075C154.337 188.435 154.432 188.737 154.583 188.825C154.809 188.957 155.396 188.896 156.153 188.459L187.553 170.329C189.307 169.317 190.844 166.947 190.844 165.256L191.18 153.336L154.723 174.384M154.873 191.828C154.232 191.828 153.635 191.677 153.111 191.376C152.019 190.745 151.392 189.528 151.392 188.032L151.825 172.656L194.272 148.149L193.788 165.297C193.789 167.991 191.696 171.339 189.027 172.88L157.627 191.009C156.685 191.553 155.741 191.828 154.873 191.828" fill="#A37C5A"/>
<path d="M110.461 166.173C109.82 166.173 109.221 166.025 108.697 165.721C107.605 165.092 106.979 163.873 106.979 162.38L107.389 147.825L110.333 147.908L109.923 162.42C109.924 162.78 110.018 163.084 110.169 163.171C110.396 163.301 110.984 163.244 111.741 162.805L143.14 144.676C144.893 143.664 146.429 141.293 146.429 139.603L146.84 125.048L149.784 125.131L149.374 139.643C149.374 142.336 147.284 145.685 144.613 147.227L113.213 165.356C112.27 165.899 111.327 166.173 110.461 166.173" fill="#A37C5A"/>
<path d="M135.528 123.291C133.785 123.291 132.041 123.664 130.744 124.413L104.207 139.736C103.221 140.305 102.655 141.001 102.655 141.647C102.655 142.295 103.221 142.991 104.207 143.561L201.147 199.529C203.741 201.024 208.123 201.027 210.716 199.529L237.253 184.208C238.24 183.637 238.805 182.941 238.805 182.295C238.805 181.648 238.24 180.951 237.253 180.381L140.313 124.413C139.017 123.665 137.273 123.291 135.528 123.291M205.931 203.599C203.68 203.599 201.428 203.093 199.673 202.08L102.735 146.111C100.784 144.985 99.7095 143.4 99.7095 141.647C99.7095 139.895 100.785 138.309 102.735 137.185L129.271 121.864C132.781 119.837 138.279 119.836 141.787 121.864L238.727 177.832C240.677 178.957 241.751 180.543 241.751 182.295C241.751 184.047 240.677 185.632 238.727 186.757L212.189 202.08C210.435 203.092 208.183 203.599 205.931 203.599" fill="#A37C5A"/>
<path d="M206.085 199.039L244.143 176.923L244.085 181.702L206.028 203.819L206.085 199.039" fill="#4D3623"/>
<path d="M95.7466 134.541L133.804 112.425L244.143 176.923L206.085 199.039L95.7466 134.541" fill="#FBE6C6"/>
<path d="M95.7466 134.542L206.085 199.039L206.028 203.819L95.7466 139.354V134.542" fill="#64472E"/>
<path d="M206.648 185.352C205.292 183.628 202.477 180.253 200.264 178.941C201.148 179.447 202.003 179.925 202.877 180.409C202.877 180.409 205.467 182.267 206.279 183.676C206.375 183.852 206.441 184.001 206.481 184.137C206.605 184.564 206.639 184.975 206.648 185.352M198.544 177.948C192.948 174.732 177.953 166.173 177.953 166.173L162.521 155.953C162.9 156.173 163.287 156.38 163.683 156.569C172.152 160.636 175.324 160.419 177.019 161.773C178.712 163.129 184.581 169.445 186.952 170.923C192.268 174.207 195.68 176.279 198.544 177.948ZM206.98 168.671L188.225 160.676C185.157 158.529 181.861 155.98 180.963 154.536C179.499 152.164 174.416 147.652 174.416 147.652L174.433 147.641C174.437 147.644 174.439 147.645 174.44 147.645L174.508 147.6L174.539 147.584L174.673 147.503C175.4 147.071 177.54 145.744 179.893 143.741C181.041 144.832 191.536 154.795 193.459 155.908C194.961 156.777 200.503 160.833 203.288 162.887C204.087 163.956 204.072 166.272 204.911 166.911C205.391 167.276 206.183 168.031 206.98 168.671M160.539 154.609C157.681 152.707 152.473 149.375 150.916 149.293C150.869 149.291 150.82 149.289 150.768 149.289C148.375 149.289 140.169 151.831 140.169 151.831L136.471 149.743L138.449 148.6C138.587 148.521 138.655 148.417 138.655 148.315V148.032L147.251 144.292L140.885 140.773L133.492 144.681C133.36 144.615 133.196 144.581 133.031 144.581C132.852 144.581 132.673 144.62 132.536 144.699L125.332 148.859L124.436 147.128L130.816 142.396L132.035 143.884C132.035 143.884 132.687 143.504 133.676 142.855C133.953 142.673 134.256 142.472 134.577 142.253C137.179 140.492 141.137 137.527 143.213 134.544C143.416 134.491 143.609 134.432 143.788 134.371C143.937 134.608 147.321 139.928 151.569 142.475C151.913 143.235 152.411 144.261 153.056 145.429C153.445 146.132 153.888 146.884 154.387 147.659C154.385 147.659 154.384 147.659 154.384 147.659L155.347 149.679C155.451 149.619 155.553 149.559 155.657 149.5C156.995 151.312 158.621 153.127 160.539 154.609" fill="#E0C29F"/>
<path d="M85.396 175.308C84.4866 175.308 83.752 174.572 83.752 173.664V57.9508C83.752 57.0428 84.4866 56.3068 85.396 56.3068C86.304 56.3068 87.04 57.0428 87.04 57.9508V173.664C87.04 174.572 86.304 175.308 85.396 175.308Z" fill="#61452D"/>
<path d="M85.2773 14.5013L145.757 14.6626L98.6573 0.806576L85.2773 14.5013Z" fill="#E48D36"/>
<path d="M46.4465 5.58112L9.06787 27.1611L85.2772 14.5011L46.4465 5.58112Z" fill="#E48D36"/>
<path d="M98.657 0.80677L46.4463 5.58144L85.277 14.5015L98.657 0.80677Z" fill="#FFF8ED"/>
<path d="M9.0681 27.1612L0.798828 57.3052L85.2775 14.5012L9.0681 27.1612Z" fill="#FFF8ED"/>
<path d="M85.2773 14.5014L124.108 93.5801L161.485 71.9988L85.2773 14.5014Z" fill="#FFF8ED"/>
<path d="M85.2775 14.5012L0.798828 57.3052L24.7975 84.4985L85.2775 14.5012Z" fill="#E48D36"/>
<path d="M85.2773 14.5013L169.756 41.856L145.757 14.6626L85.2773 14.5013Z" fill="#FFF8ED"/>
<path d="M85.2773 14.5012L161.485 71.9985L169.756 41.8559L85.2773 14.5012Z" fill="#E48D36"/>
<path d="M85.2774 14.5012L71.8975 98.3545L124.108 93.5798L85.2774 14.5012Z" fill="#E48D36"/>
<path d="M24.7974 84.4985L71.8974 98.3545L85.2774 14.5012L24.7974 84.4985Z" fill="#FFF8ED"/>
<path d="M24.7974 84.4986C24.7974 84.4986 30.5161 95.4119 45.9254 99.4119C65.7748 104.565 71.8974 98.3546 71.8974 98.3546L24.7974 84.4986Z" fill="#FBE6C6"/>
<path d="M124.108 93.58L161.485 71.9987C161.485 71.9987 157.385 84.0427 145.757 89.788C134.128 95.5347 124.108 93.58 124.108 93.58Z" fill="#FBE6C6"/>
<path d="M0.798828 57.3051C0.798828 57.3051 3.87749 70.2718 12.7988 78.3398C21.7188 86.4091 24.7975 84.4985 24.7975 84.4985L0.798828 57.3051Z" fill="#912828"/>
<path d="M71.8975 98.3548C71.8975 98.3548 76.552 104.372 98.6574 102.889C120.013 101.457 124.108 93.5801 124.108 93.5801L71.8975 98.3548Z" fill="#912828"/>
<path d="M161.485 71.9985C161.485 71.9985 167.524 71.2705 169.756 62.3679C171.609 54.9705 169.756 41.8559 169.756 41.8559L161.485 71.9985Z" fill="#912828"/>
<path d="M83.7505 16.1465L84.8785 2.8598C84.9025 2.57447 85.1532 2.36246 85.4385 2.38646C85.6945 2.40913 85.8905 2.61314 85.9118 2.8598L87.0385 16.1465C87.1172 17.0558 86.4425 17.8545 85.5345 17.9305C84.6265 18.0078 83.8265 17.3345 83.7505 16.4251V16.1465Z" fill="#61452D"/>
<path d="M50.8255 194.605L47.9375 193.865L52.8361 174.711L55.7241 175.451L50.8255 194.605Z" fill="#A37C5A"/>
<path d="M127.197 239L130.757 254.816C130.757 255.223 130.852 255.529 131.004 255.617C131.235 255.753 131.829 255.691 132.595 255.248L164.388 236.892C166.109 235.897 167.627 233.605 167.713 231.907L164.435 217.501L127.197 239M131.299 258.659C130.649 258.659 130.043 258.507 129.513 258.2C128.453 257.587 127.825 256.427 127.777 254.996L123.801 237.517L166.447 212.895L170.7 231.756C170.7 234.523 168.583 237.913 165.879 239.475L134.087 257.831C133.133 258.38 132.177 258.659 131.299 258.659" fill="#A37C5A"/>
<path d="M86.8837 215.844L86.4931 229.704C86.4931 230.069 86.5904 230.376 86.7424 230.464C86.9718 230.599 87.5651 230.537 88.3318 230.093L120.125 211.739C121.9 210.715 123.456 208.313 123.456 206.601L123.796 194.533L86.8837 215.844M87.0357 233.504C86.3863 233.504 85.7811 233.353 85.2504 233.048C84.1451 232.409 83.5117 231.176 83.5117 229.663L83.9504 214.095L126.926 189.281L126.436 206.643C126.437 209.369 124.318 212.76 121.616 214.32L89.8237 232.676C88.869 233.225 87.9143 233.504 87.0357 233.504Z" fill="#A37C5A"/>
<path d="M42.0692 207.531C41.4199 207.531 40.8159 207.38 40.2839 207.073C39.1786 206.435 38.5439 205.201 38.5439 203.688L38.96 188.953L41.9399 189.037L41.5266 203.731C41.5266 204.095 41.6212 204.403 41.7745 204.491C42.0025 204.621 42.5987 204.564 43.364 204.12L75.1572 185.765C76.9306 184.74 78.4867 182.34 78.4867 180.628L78.904 165.892L81.8826 165.976L81.4692 180.669C81.4705 183.396 79.352 186.787 76.6493 188.347L44.8559 206.703C43.9026 207.253 42.9465 207.531 42.0692 207.531" fill="#A37C5A"/>
<path d="M67.4508 164.114C65.6855 164.114 63.9202 164.492 62.6055 165.25L35.7375 180.763C34.7402 181.339 34.1669 182.044 34.1669 182.699C34.1669 183.354 34.7402 184.059 35.7375 184.636L133.887 241.303C136.514 242.818 140.95 242.819 143.578 241.303L170.445 225.79C171.443 225.214 172.016 224.507 172.016 223.852C172.016 223.199 171.443 222.494 170.445 221.916L72.2962 165.25C70.9815 164.492 69.2162 164.114 67.4508 164.114ZM138.732 245.423C136.452 245.423 134.172 244.911 132.396 243.884L34.2469 187.219C32.2722 186.079 31.1855 184.474 31.1855 182.699C31.1855 180.924 32.2722 179.319 34.2469 178.18L61.1149 162.667C64.6682 160.618 70.2349 160.616 73.7869 162.667L171.936 219.334C173.911 220.475 174.998 222.079 174.998 223.852C174.998 225.628 173.911 227.232 171.936 228.372L145.068 243.884C143.291 244.91 141.011 245.423 138.732 245.423Z" fill="#A37C5A"/>
<path d="M37.4482 140.773L75.9802 118.381L108.664 177.915L70.1323 200.307L37.4482 140.773Z" fill="#FBE6C6"/>
<path d="M138.887 240.807L177.418 218.415L177.361 223.253L138.829 245.644L138.887 240.807" fill="#4D3623"/>
<path d="M70.1318 200.307L108.664 177.915L177.418 218.415L138.887 240.807L70.1318 200.307Z" fill="#FBE6C6"/>
<path d="M37.4482 140.773L70.1323 200.307L138.887 240.807L138.83 245.644L68.2536 204.072L35.0576 143.599L37.4482 140.773Z" fill="#64472E"/>
<path d="M79.8616 194.653L62.8949 168.945L51.2656 162.621C56.7856 164.629 60.4843 164.776 64.9829 167.449C65.0389 167.545 65.0963 167.641 65.1536 167.737C65.187 167.791 65.2189 167.844 65.2522 167.897C65.2522 167.899 65.2536 167.9 65.2536 167.901C65.2576 167.907 65.2617 167.913 65.2643 167.919C65.2843 167.951 65.3042 167.983 65.3242 168.015C65.3269 168.02 65.3309 168.025 65.3336 168.031C65.3496 168.056 65.3669 168.084 65.3829 168.111C65.3949 168.128 65.4056 168.145 65.4163 168.163C65.4216 168.171 65.4257 168.179 65.431 168.187C65.4323 168.188 65.4336 168.189 65.4336 168.192C65.4443 168.208 65.4563 168.225 65.4669 168.243C71.4363 177.725 85.2603 189.705 85.2603 189.705L85.3296 190.044C85.4162 190.479 85.5082 190.901 85.6069 191.313L79.8616 194.653ZM68.7469 153.861C67.9789 153.737 66.9856 153.62 65.9163 153.603L65.2016 150.504C65.5189 150.711 65.8376 150.876 66.1549 150.999L66.7376 151.265L68.7469 153.861Z" fill="#E0C29F"/>
<path d="M141.124 236.602C141.124 236.602 119.42 222.835 117.891 222.835C117.852 222.835 117.825 222.843 117.813 222.862C117.797 222.886 117.768 222.896 117.725 222.896C116.467 222.896 104.064 212.758 104.064 212.758L89.1534 203.439L80.4786 195.591L79.8613 194.654L85.6066 191.314C88.8666 204.938 98.5506 205.978 98.5506 205.978L114.167 216.834C114.167 216.834 114.165 216.83 114.164 216.824L114.169 216.83C114.169 216.83 114.861 217.374 116.064 217.374C116.432 217.374 116.848 217.323 117.307 217.19C118.907 219.46 121.965 223.448 125.885 226.892C129.096 229.706 133.38 230.57 137.795 233.811L137.943 233.979C137.943 233.979 138.52 234.398 139.405 235.103C139.937 235.532 140.549 236.054 141.124 236.6V236.602M130.117 217.04C128.809 215.566 127.547 214.292 126.432 213.454C126.432 213.454 124.565 210.572 122.712 208.142C122.781 208.199 122.847 208.263 122.904 208.334C120.831 204.816 117.779 200.214 113.479 195.664C113.499 195.639 113.52 195.615 113.54 195.591C115.251 193.712 116.075 191.486 116.075 191.486L116.989 190.3L127.755 197.28L127.921 204.835L132.973 216.834L130.117 217.04" fill="#E0C29F"/>
<path d="M76.1055 134.209L73.1242 136.009L72.8055 136.516L72.2188 137.52L71.3842 138.921L65.6589 139.737L64.4455 139.916L64.1575 139.955L62.8949 138.861L61.9309 138.017L61.4335 137.589L61.1162 137.311L61.8028 136.416L63.5122 134.209C66.7028 131.525 71.9015 132.172 71.9015 132.172H74.5361L75.9855 134.051L76.1055 134.209" fill="#FF8759"/>
<path d="M93.1334 143.047L91.5627 150.999L91.3041 152.301L91.1654 152.391C85.1814 156.168 81.9601 154.995 79.6441 152.191C79.4267 151.933 79.2267 151.675 79.0281 151.396C78.9387 151.257 78.8388 151.119 78.7588 150.979C78.6201 150.78 78.48 150.572 78.352 150.353C78.352 150.353 78.4014 150.113 78.5214 149.717L78.5907 149.517C79.0187 148.185 80.0721 145.601 82.1094 144.349C82.1094 144.349 85.0414 135.651 86.6614 134.329L86.8308 134.209L73.124 136.009L72.3774 136.109L72.14 134.16L71.9014 132.172C71.9014 132.172 89.6534 124.469 94.7041 127.779C94.7041 127.779 97.1094 130.641 93.1334 143.047" fill="#FF8759"/>
<path d="M74.1172 138.077C73.6999 137.509 73.2825 137.013 72.8745 136.596L72.8691 136.589C72.8745 136.592 72.8799 136.593 72.8839 136.596C73.2825 137.013 73.6999 137.509 74.1172 138.077ZM72.8839 136.596C72.8879 136.589 72.9946 136.414 73.0652 136.106C73.0026 136.401 72.8879 136.589 72.8839 136.596Z" fill="#DDB696"/>
<path d="M73.0761 136.057C73.0788 136.045 73.0814 136.032 73.0827 136.018C73.0841 136.017 73.084 136.016 73.084 136.014L73.124 136.009L73.0761 136.057M72.14 134.165C72.1334 134.16 72.1268 134.154 72.1201 134.15C72.1255 134.15 72.1321 134.15 72.1387 134.15L72.14 134.16V134.165Z" fill="#E06B43"/>
<path d="M73.084 136.015C73.1613 135.531 73.0626 134.824 72.14 134.165V134.16L72.1387 134.151C73.4533 134.151 74.7293 134.12 75.9853 134.051C81.116 133.763 85.9174 132.799 90.2307 130.8L86.8307 134.209L73.124 136.009L73.084 136.015" fill="#E06B43"/>
<path d="M66.6623 141.237L65.0317 142.589L64.0477 143.394L63.6796 143.713L62.965 144.3L62.149 144.976L61.1251 145.253L58.173 146.049L54.873 146.992L54.157 147.201L52.1689 146.377L54.4356 143.057C54.4449 143.046 55.6076 139.26 58.213 137.848C59.565 137.112 60.8663 136.674 61.8023 136.416C62.1196 136.328 62.3984 136.268 62.6157 136.217C63.0037 136.138 63.2223 136.109 63.2223 136.109L63.3516 136.306L65.0811 138.881L65.6584 139.737L66.6623 141.237" fill="#FF8759"/>
<path d="M62.8945 142.051L63.0199 146.461L70.0385 155.532C70.0385 155.532 81.0345 158.824 80.9118 158.637C80.7878 158.452 79.2958 150.325 79.2958 150.325L74.6999 145.032L62.8945 142.051" fill="#FF8759"/>
<path d="M70.2906 154.16L70.2013 154.379L69.8427 155.273L66.1359 164.567L64.9826 167.449C59.4453 164.16 55.1213 164.696 47.12 160.88C43.72 159.259 42.06 158.047 41.2546 157.201C40.32 156.237 40.5293 155.78 40.5293 155.78C40.1013 150.392 54.0079 143.265 54.4359 143.057L57.2292 145.283L58.1733 146.049L51.7119 152.052L61.116 154.497C63.5306 153.285 66.8413 153.553 68.7506 153.863C69.6946 154.001 70.2906 154.16 70.2906 154.16" fill="#FF8759"/>
<path d="M105.389 177.023C105.389 177.023 104.882 177.132 104.008 177.389C100.668 178.393 91.9798 181.595 85.6785 189.199C85.5385 189.359 85.4092 189.517 85.2706 189.687C85.2599 189.705 70.6479 177.042 64.9826 167.449C63.9199 165.651 63.1732 163.971 62.8945 162.489L64.1572 160.631L67.8639 155.153L69.3665 154.657L70.2012 154.378L72.6559 153.563L76.4426 152.301L78.7586 150.978L78.9691 150.86L79.3559 150.641L83.6599 148.185L90.4879 150.621L91.5625 150.999C91.5625 150.999 101.911 169.567 105.389 177.023Z" fill="#FF8759"/>
<path d="M116.074 189.706L111.65 193.811L111.382 194.06L107.118 198.027L102.069 202.718L98.5504 205.978C98.5504 205.978 88.2717 204.875 85.329 190.044L85.2598 189.706C85.2998 189.507 85.6384 187.976 87.0091 185.988C88.4304 183.911 90.9558 181.336 95.4198 179.27C95.4198 179.27 99.8718 177.599 103.182 177.112C104.028 176.992 104.793 176.952 105.389 177.023L105.548 177.062C106.054 177.182 106.661 177.599 107.348 178.215C110.866 181.376 116.074 189.706 116.074 189.706" fill="#1E619E"/>
<path d="M121.94 183.861L120.051 186.327L117.755 189.309L116.074 191.485C116.074 191.485 115.25 193.712 113.54 195.591C113.39 195.769 113.221 195.948 113.043 196.117C111.601 197.509 109.634 198.543 107.118 198.027C105.05 197.608 103.986 195.332 103.49 192.519C102.506 187.041 103.649 179.507 103.649 179.507C103.649 179.507 104.146 178.761 105.041 177.659C105.201 177.469 105.369 177.271 105.548 177.061C106.244 176.247 107.119 175.293 108.144 174.319C110.389 172.211 113.361 170.015 116.78 168.961L121.94 183.861" fill="#1E619E"/>
<path d="M111.292 213.557L114.169 216.829C114.169 216.829 116.697 218.817 120.485 215.193L114.957 208.152L111.292 213.557" fill="#7A181D"/>
<path d="M140.885 229.696C138.986 229.854 138.638 231.276 138.768 232.617C138.877 233.81 139.345 234.944 139.405 235.092C138.798 234.576 138.292 234.178 137.794 233.81C133.38 230.569 129.096 229.705 125.885 226.892C120.012 221.733 116.074 215.352 116.074 215.352L113.49 213.84L110.11 211.872C110.11 211.872 117.982 204.914 119.385 204.834C120.797 204.754 126.432 213.453 126.432 213.453C130.578 216.574 136.78 225.72 139.673 228.74C140.209 229.297 140.617 229.636 140.885 229.696" fill="#FF8759"/>
<path d="M141.124 229.685L140.885 229.695L141.093 229.685H141.124Z" fill="#FF8759"/>
<path d="M122.904 208.333C121.94 207.151 119.167 207.896 119.167 207.896C116.115 208.989 114.812 210.948 114.285 212.757C113.68 214.904 114.167 216.833 114.167 216.833L98.5507 205.977L94.9227 198.603L94.7041 198.165L107.377 190.044C108.908 191.267 110.329 192.528 111.651 193.811C116.929 198.94 120.548 204.337 122.904 208.333" fill="#1E619E"/>
<path d="M148.252 239.904C146.142 241.762 143.908 240.023 142.545 238.155C141.78 237.12 140.439 235.937 139.405 235.103C138.52 234.397 137.943 233.978 137.943 233.978L137.794 233.81L134.653 230.242L132.973 228.342C132.973 228.342 136.284 225.281 139.165 228.253C139.335 228.433 139.514 228.592 139.673 228.74C140.198 229.188 140.656 229.486 141.093 229.685C143.371 230.749 144.941 229.337 144.941 229.337C144.941 229.337 150.011 220.013 151.115 223.741C152.893 229.754 149.584 229.835 148.837 232.568C148.093 235.301 150.369 238.034 148.252 239.904" fill="#FF8759"/>
<path d="M72.6602 153.562C70.3162 152.453 68.7229 150.224 68.6162 150.073C68.6175 150.073 68.6189 150.073 68.6202 150.074C70.1149 150.678 71.5855 150.993 72.9442 150.993C74.3135 150.993 75.5695 150.673 76.6229 150.005C77.1869 149.648 77.5042 149.104 77.6549 148.441C78.4255 149.382 78.8216 150.185 78.9709 150.858L78.9695 150.86L78.7589 150.978L76.4429 152.301L72.6602 153.562" fill="#E06B43"/>
<path d="M75.2361 154.177C74.3121 154.177 73.4442 153.932 72.6602 153.563L76.4428 152.301L78.7589 150.979L78.9694 150.86L78.9708 150.859C79.2975 152.324 78.4548 153.184 77.7574 153.544C76.8868 153.993 76.0401 154.177 75.2361 154.177" fill="#E06B43"/>
<path d="M77.656 148.435C77.5067 149.1 77.1893 149.647 76.6227 150.005C74.5253 151.336 71.6227 151.287 68.6201 150.075C67.6454 149.677 66.6627 149.16 65.6987 148.533C65.4294 148.355 65.1614 148.176 64.8934 147.977C64.2574 147.519 63.6307 147.023 63.0254 146.465L62.9346 146.337C62.8146 146.177 62.616 145.88 62.388 145.472C62.308 145.323 62.2186 145.164 62.1293 144.985C61.524 143.772 60.8866 141.964 61.196 140.055C61.3053 139.379 61.5334 138.693 61.9307 138.017C62.2681 137.431 62.736 136.855 63.352 136.307C63.72 135.969 64.1466 135.651 64.6346 135.343C64.6346 135.343 67.5466 132.897 71.1746 135.193C71.5626 135.432 71.9707 135.741 72.3773 136.109C72.5173 136.237 72.656 136.377 72.8053 136.516L72.8746 136.596C73.2826 137.013 73.7 137.509 74.1173 138.077C74.2867 138.315 74.4653 138.564 74.6346 138.821C74.6346 138.821 78.4013 145.095 77.656 148.435" fill="#FF8759"/>
<path d="M73.0827 136.019C73.0147 136.387 72.884 136.596 72.884 136.596C72.4373 136.407 72.0493 136.297 71.6333 136.248C69.5547 135.94 66.7214 136.705 65.0814 138.881C64.8334 139.189 64.6146 139.537 64.4453 139.916C64.1773 140.432 63.9787 141.009 63.8587 141.645C63.8001 141.844 63.78 142.063 63.8 142.281C63.8093 142.649 63.9094 143.027 64.048 143.395C64.5547 144.647 65.5387 145.751 65.5387 145.751L64.8534 146.813L64.516 147.36L64.8934 147.977L65.9173 149.647L66.9506 151.367L66.7427 151.267L66.1547 150.999C65.7173 150.829 65.28 150.581 64.844 150.253C63.9693 149.597 63.124 148.653 62.3987 147.58C62.1 147.132 61.812 146.655 61.5626 146.168C61.404 145.869 61.2547 145.561 61.1254 145.253C60.8081 144.517 60.5587 143.772 60.4 143.047C60.2213 142.223 60.1719 141.447 60.2519 140.72C60.3613 139.568 60.788 138.535 61.4333 137.589C61.772 137.112 62.1693 136.655 62.616 136.217C62.9733 135.869 63.3626 135.532 63.7799 135.215C66.3839 133.225 70.012 132.857 71.9013 134.001L72.12 134.151C73.064 134.816 73.1627 135.532 73.0827 136.019" fill="#241911"/>
<path d="M62.7144 148.685C63.1637 149.385 63.8543 149.925 64.6396 150.197C67.0903 151.042 65.3676 147.454 64.757 146.684C63.4023 144.976 61.6677 147.057 62.7144 148.685" fill="#FF8759"/>
<path d="M85.26 189.705C85.26 189.705 71.4359 177.725 65.4666 168.242C71.3693 177.617 84.9493 189.434 85.2653 189.682C85.264 189.692 85.2613 189.7 85.26 189.705M65.4333 168.192C65.4333 168.189 65.432 168.188 65.4307 168.186C65.432 168.188 65.4333 168.189 65.4333 168.192ZM65.416 168.162C65.4053 168.145 65.3946 168.128 65.3826 168.11C65.3946 168.128 65.4053 168.145 65.416 168.162ZM65.3333 168.03C65.3306 168.025 65.3266 168.02 65.3239 168.014C65.3266 168.02 65.3306 168.025 65.3333 168.03ZM65.264 167.918C65.2613 167.913 65.2573 167.906 65.2533 167.901C65.2573 167.906 65.2613 167.913 65.264 167.918ZM65.2519 167.897C65.2186 167.844 65.1867 167.79 65.1533 167.737C65.1867 167.79 65.2186 167.844 65.2519 167.897Z" fill="#C59978"/>
<path d="M64.9829 167.449C59.8802 164.417 55.8069 164.636 48.9376 161.701C48.3536 161.452 47.7482 161.179 47.1202 160.88C45.5642 160.139 44.3735 159.481 43.4615 158.908C42.3802 158.227 41.6922 157.66 41.2549 157.201C43.8149 158.224 52.4349 161.449 58.4829 161.449C59.4362 161.449 60.3242 161.369 61.1162 161.188L64.1575 160.631L62.8949 162.489C63.1735 163.971 63.9202 165.651 64.9829 167.449Z" fill="#E06B43"/>
<path d="M85.2652 189.683C84.9492 189.435 71.3692 177.617 65.4665 168.243C65.4559 168.225 65.4439 168.208 65.4332 168.192C65.4332 168.189 65.4319 168.188 65.4306 168.187C65.4253 168.179 65.4212 168.171 65.4159 168.163C65.4052 168.145 65.3946 168.128 65.3826 168.111C65.3666 168.084 65.3492 168.056 65.3332 168.031C65.3305 168.025 65.3265 168.02 65.3238 168.015C65.3038 167.983 65.2839 167.951 65.2639 167.919C65.2613 167.913 65.2573 167.907 65.2533 167.901C65.2533 167.9 65.2518 167.899 65.2518 167.897C65.2185 167.844 65.1866 167.791 65.1533 167.737C65.0959 167.641 65.0386 167.545 64.9826 167.449C63.9199 165.651 63.1732 163.971 62.8945 162.489L64.1572 160.631C64.7438 162.081 65.4105 163.384 66.1358 164.567C71.8518 174.051 81.2533 176.148 87.0199 185.959L87.0052 185.995C85.6825 187.915 85.3226 189.407 85.2652 189.683" fill="#E06B43"/>
<path d="M58.1735 146.049L57.2295 145.283L57.9242 142.361L60.2521 140.72C60.1721 141.447 60.2215 142.223 60.4002 143.047C60.5589 143.772 60.8083 144.517 61.1256 145.253L58.1735 146.049Z" fill="#E06B43"/>
<path d="M51.7119 152.052H47.9253L54.8732 146.992L57.2292 145.282L58.1732 146.049L51.7119 152.052" fill="#E06B43"/>
<path d="M61.5626 146.168C61.404 145.869 61.2547 145.561 61.1254 145.253C60.8081 144.517 60.5587 143.772 60.4 143.047C60.2213 142.223 60.1719 141.447 60.2519 140.72L61.196 140.055L62.8947 138.861L63.4307 142.192L63.6799 143.713L63.7693 144.289L62.984 144.965L62.388 145.463L61.5626 146.168" fill="#1F140D"/>
<path d="M91.5629 150.999L90.4883 150.621L93.1336 143.047L91.5629 150.999Z" fill="#E06B43"/>
<path d="M103.121 177.121C104.321 176.092 95.4171 157.758 91.1651 152.39C90.8158 151.962 90.5091 151.614 90.2305 151.366L90.4878 150.621L91.5624 150.998C91.5624 150.998 101.91 169.566 105.389 177.022C105.19 176.998 104.973 176.988 104.74 176.988C104.273 176.988 103.745 177.032 103.182 177.112C103.162 177.114 103.141 177.118 103.121 177.121" fill="#E06B43"/>
<path d="M104.008 177.389C103.451 177.25 103.093 177.152 103.093 177.141C103.103 177.136 103.112 177.129 103.121 177.121C103.141 177.118 103.163 177.114 103.183 177.112C103.745 177.032 104.273 176.988 104.74 176.988C104.973 176.988 105.191 176.998 105.389 177.022C105.389 177.022 104.883 177.132 104.008 177.389" fill="#487884"/>
<path d="M113.54 195.591L113.4 195.581C112.839 194.989 112.256 194.399 111.651 193.811C110.329 192.528 108.908 191.267 107.377 190.044L107.043 190.257C106.787 190.072 106.527 189.888 106.264 189.705C106.264 189.705 114.325 187.032 113.54 177.847L120.488 182.291L120.051 186.327L117.755 189.309L116.075 191.485C116.075 191.485 115.251 193.712 113.54 195.591" fill="#023F76"/>
<path d="M113.4 195.582H113.391C113.391 195.582 110.544 192.794 107.043 190.258L107.378 190.044C108.908 191.267 110.33 192.528 111.651 193.811C112.256 194.399 112.839 194.99 113.4 195.582" fill="#023F76"/>
<path d="M116.82 168.943C116.82 168.943 111.726 171.934 113.962 179.762C116.2 187.588 125.021 203.742 125.021 203.742C125.021 203.742 127.631 205.978 130.488 203.742C130.488 203.742 124.701 174.294 121.941 170.939C119.181 167.584 116.82 168.943 116.82 168.943Z" fill="#FF8759"/>
<path d="M124.524 198.16C124.524 199.02 125.021 203.741 125.021 203.741C125.021 203.741 123.033 207.593 126.388 209.831C129.743 212.067 128.5 210.601 129.247 212.763C129.991 214.924 131.233 218.568 135.087 219.356C138.937 220.143 139.429 216.073 138.068 214.179C136.163 211.528 132.021 206.516 132.021 206.516L130.488 203.741L127.755 197.28L124.524 198.16Z" fill="#FF8759"/>
<path d="M98.5505 205.978C98.5505 205.978 88.8664 204.938 85.6064 191.314C85.5078 190.902 85.4158 190.479 85.3291 190.044L85.6785 189.199L87.0051 185.995C87.0065 185.992 87.0078 185.991 87.0092 185.988C87.2878 191.287 91.0358 195.998 94.9225 198.603L98.5505 205.978" fill="#023F76"/>
<path d="M113.981 215.032C113.981 214.759 113.993 214.464 114.024 214.154H114.025C113.995 214.464 113.981 214.759 113.981 215.032Z" fill="#461318"/>
<path d="M114.167 216.833L98.5508 205.977L94.9229 198.603C96.5135 199.676 98.1335 200.381 99.5442 200.64L102.069 202.717L114.285 212.757L113.491 213.84L114.024 214.153C113.993 214.464 113.982 214.759 113.982 215.032C113.982 216.097 114.167 216.833 114.167 216.833" fill="#023F76"/>
<path d="M85.329 190.044L85.2598 189.705C85.2998 189.508 85.6371 187.98 87.0051 185.995L85.6784 189.199L85.329 190.044" fill="#296170"/>
<path d="M137.795 233.811C133.38 230.569 129.096 229.705 125.885 226.892C120.012 221.733 116.075 215.352 116.075 215.352L114.025 214.153C114.069 213.715 114.149 213.245 114.285 212.767V212.757L118.977 215.5C118.977 215.5 126.463 225.928 134.643 230.232C134.644 230.232 134.645 230.232 134.645 230.233L134.653 230.243L137.795 233.811" fill="#E06B43"/>
<path d="M146.332 240.699C144.871 240.699 143.496 239.457 142.546 238.155C141.78 237.12 140.439 235.937 139.406 235.103C138.52 234.397 137.943 233.979 137.943 233.979L137.795 233.811L134.654 230.243L134.646 230.233C136.394 231.157 137.725 231.943 138.768 232.617C142.655 235.112 142.516 236.127 143.828 237.041C143.966 237.137 144.103 237.181 144.239 237.181C145.743 237.181 147.139 231.783 147.139 231.783C147.139 231.783 148.108 223.737 151.01 223.737C151.044 223.737 151.079 223.739 151.115 223.741C151.483 224.987 151.634 225.977 151.634 226.789C151.634 229.901 149.43 230.4 148.838 232.568C148.724 232.984 148.68 233.401 148.682 233.815C148.683 235.203 149.18 236.557 149.179 237.76C149.179 238.551 148.963 239.276 148.252 239.904C147.615 240.465 146.966 240.699 146.332 240.699" fill="#E06B43"/>
<path d="M114.025 214.153H114.024C114.068 213.712 114.149 213.24 114.285 212.757V212.767C114.149 213.245 114.069 213.715 114.025 214.153" fill="#815639"/>
<path d="M114.024 214.153L113.491 213.84L114.285 212.757C114.149 213.24 114.068 213.712 114.024 214.153Z" fill="#29616F"/>
<path d="M122.598 150.924L132.536 145.187C132.811 145.028 133.252 145.028 133.526 145.187L138.213 147.893L138.655 147.807V148.315C138.655 148.417 138.587 148.521 138.449 148.6L128.336 154.439C128.064 154.597 127.622 154.597 127.348 154.439L122.423 151.596C122.289 151.519 122.221 151.419 122.219 151.317V150.811L122.598 150.924" fill="black"/>
<path d="M138.449 147.542L133.526 144.699C133.252 144.541 132.811 144.541 132.536 144.699L122.423 150.538C122.149 150.696 122.149 150.95 122.423 151.109L127.348 153.952C127.621 154.109 128.064 154.109 128.336 153.952L138.449 148.113C138.723 147.956 138.723 147.7 138.449 147.542" fill="#4D4D4D"/>
<path d="M122.764 150.572L132.687 144.844C132.843 144.752 133.097 144.752 133.253 144.843L138.179 147.687L138.292 147.881L138.179 148.015L128.257 153.743C128.099 153.833 127.845 153.833 127.689 153.743L122.764 150.9L122.663 150.799L122.764 150.572" fill="white"/>
<path d="M122.776 150.664L132.697 144.936C132.855 144.845 133.108 144.847 133.265 144.936L138.191 147.78L138.292 147.881L138.179 148.015L128.257 153.743C128.099 153.833 127.845 153.833 127.689 153.743L122.764 150.9L122.663 150.799L122.776 150.664" fill="#0E92CF"/>
<path d="M126.045 152.668L124.54 151.799L132.192 151.345L130.416 152.371L126.045 152.668" fill="#023F76"/>
<path d="M123.357 150.456L124.359 149.877L135.71 149.313L134.684 149.905L123.357 150.456" fill="#023F76"/>
<path d="M124.688 149.687L128.035 147.755L136.843 147.128L138.124 147.92L136.117 149.077L124.688 149.687" fill="#023F76"/>
<path d="M199.435 177.292L199.625 177.468L202.877 180.409C202.877 180.409 205.467 182.267 206.279 183.676C206.375 183.852 206.441 184.001 206.481 184.137C206.889 185.547 206.32 186.779 207.105 187.227L207.444 187.321C208.191 187.308 209.072 186.156 209.708 185.085C210.44 183.852 211.28 184.191 211.741 183.621C212.135 183.133 213.381 181.359 212.54 180.084C212.432 179.921 212.283 179.759 212.095 179.611C210.44 178.376 209.423 179.324 208.015 178.431C206.604 177.523 204.911 176.56 204.911 176.56L200.275 174.027L199.435 177.292" fill="#FF8759"/>
<path d="M200.844 156.325C200.844 156.325 200.56 158.995 200.844 159.904C201.129 160.812 201.631 161.773 202.877 162.505C204.111 163.237 203.948 166.179 204.911 166.911C205.872 167.643 208.096 169.947 209.084 169.729C213.543 168.768 211.796 164.253 211.511 163.807C210.724 162.56 207.283 160.473 206.428 157.979C205.588 155.499 204.911 154.876 204.911 154.876L201.292 149.685L199.747 150.051L199.435 150.132L200.831 156.299L200.844 156.325Z" fill="#FF8759"/>
<path d="M150.996 141.105C150.996 141.105 151.024 141.187 151.091 141.349C151.321 141.945 151.985 143.491 153.056 145.429C155.089 149.101 158.627 154.144 163.683 156.569C172.152 160.636 175.324 160.419 177.019 161.773C178.712 163.129 184.581 169.445 186.952 170.923C195.111 175.964 198.784 178.145 202.877 180.409C202.877 180.409 202.756 179.745 202.919 178.945C203.093 178.092 203.595 177.089 204.911 176.56C201.901 173.552 195.436 165.271 193.16 163.916C190.381 162.261 182.439 156.908 180.963 154.536C179.499 152.164 174.416 147.652 174.416 147.652L174.539 147.584L174.673 147.503C176.313 146.527 185.151 140.997 187.4 133.421C187.4 133.421 188.199 138.761 193.282 143.884C198.188 148.844 200.683 155.864 200.831 156.299C200.844 156.325 201.589 156.257 202.444 156.083C203.475 155.864 204.652 155.499 204.911 154.876C204.911 154.876 200.505 141.783 199.828 138.612C199.149 135.453 194.975 125.859 192.144 124.273C189.324 122.687 181.083 124.788 171.813 129.951H171.34L168.698 129.924L156.419 137.676L150.996 141.105" fill="#FF8759"/>
<path d="M206.279 183.676C205.467 182.266 202.878 180.409 202.878 180.409C202.878 180.409 202.756 179.745 202.919 178.945C205.113 180.952 206.157 183.377 206.279 183.676Z" fill="#E06B43"/>
<path d="M202.877 180.409C198.784 178.145 195.111 175.964 186.952 170.923C184.581 169.445 178.712 163.129 177.019 161.773C175.324 160.419 172.152 160.636 163.683 156.569C160.348 154.969 157.675 152.232 155.657 149.5C157.712 148.325 159.589 147.479 161.292 146.887C163.305 150.276 167.431 154.507 175.88 157.965C175.88 157.965 178.143 159.009 179.945 161.285C181.559 163.319 190.871 172.887 199.625 177.468C200.736 178.052 201.848 178.553 202.919 178.945C202.756 179.745 202.877 180.409 202.877 180.409Z" fill="#E06B43"/>
<path d="M154.387 147.659C153.888 146.884 153.445 146.132 153.056 145.429C152.411 144.261 151.913 143.235 151.569 142.475C152.071 142.775 152.585 143.037 153.107 143.248C153.107 143.248 156.027 142.668 159.385 140.871C159.38 141.009 159.339 142.64 160.328 144.985C157.116 146.979 154.492 147.632 154.387 147.659" fill="#E06B43"/>
<path d="M130.369 141.85L132.035 143.884C132.035 143.884 132.687 143.504 133.676 142.854C136.725 140.861 142.892 136.457 144.301 132.513C144.301 132.513 143 128.189 141.577 123.5C139.856 117.889 137.944 111.777 137.823 111.98C137.592 112.345 133.473 112.752 133.473 112.752C133.473 112.752 131.669 117.456 133.473 121.982C134.707 125.072 135.938 128.637 136.602 130.574C136.901 131.469 137.077 131.997 137.077 131.997L136.427 132.96L130.369 141.85" fill="#FF8759"/>
<path d="M134.577 142.253C137.204 140.473 141.145 137.516 143.213 134.544C141.137 137.527 137.178 140.492 134.577 142.253Z" fill="#C59978"/>
<path d="M133.716 142.827C134.014 142.543 136.154 140.536 137.646 138.421C138.432 137.311 138.161 135.847 137.212 134.871C136.725 134.369 136.494 133.732 136.426 132.96L137.077 131.997C137.077 131.997 136.901 131.469 136.602 130.575C136.697 129.964 136.833 129.301 136.996 128.583C137.526 126.156 135.812 121.627 135.738 121.433C136.976 123.729 138.043 125.155 137.943 127.715C137.932 127.897 137.919 128.083 137.904 128.269C137.903 128.281 137.902 128.292 137.901 128.304C137.801 129.271 137.689 130.404 137.802 131.447C137.928 132.843 138.443 134.021 139.971 134.516C140.516 134.692 141.059 134.763 141.576 134.763C142.165 134.763 142.721 134.672 143.213 134.544C141.145 137.516 137.204 140.473 134.577 142.253C134.27 142.463 133.981 142.655 133.716 142.827" fill="#E06B43"/>
<path d="M168.692 129.921C165.796 140.727 153.106 143.248 153.106 143.248C148.065 141.215 143.782 134.363 143.782 134.363C143.782 134.363 141.586 135.04 139.97 134.516C137.372 133.671 137.67 130.545 137.901 128.304C138.276 124.613 136.401 123.253 134.708 119.319C132.602 114.427 133.465 111.287 133.465 111.287L138.069 107.976C138.069 107.976 149.985 107.073 155.52 110.723C157.309 111.901 158.541 113.709 159.445 115.696C161.352 119.861 161.825 124.817 162.972 126.42C164.666 128.792 168.692 129.921 168.692 129.921" fill="#FF8759"/>
<path d="M159.874 116.713C159.738 116.372 159.597 116.031 159.444 115.696C158.923 114.546 158.26 121.075 149.332 123.759C144.368 126.855 144.697 128.389 143.783 129.473C143.783 129.473 142.482 127.636 137.646 125.008C138.857 127.357 136.012 133.233 139.971 134.516C142.596 135.367 145.156 133.744 145.156 133.744C145.156 133.744 147.925 135.72 150.839 135.116C155.963 134.181 154.206 124.779 159.874 116.713Z" fill="white"/>
<path d="M162.573 125.677C161.772 123.8 161.228 120.145 159.898 116.767C161.534 120.368 161.786 123.793 162.573 125.677Z" fill="#E1CAC1"/>
<path d="M153.107 143.248C148.167 141.256 143.955 134.636 143.788 134.371C144.621 134.083 145.156 133.744 145.156 133.744C145.156 133.744 147.261 135.301 149.548 135.301C149.976 135.301 150.411 135.247 150.839 135.116C155.963 134.181 154.207 124.779 159.875 116.713C159.883 116.732 159.891 116.749 159.899 116.767C161.228 120.145 161.772 123.8 162.573 125.677C162.692 125.961 162.823 126.211 162.972 126.42C164.667 128.792 168.692 129.921 168.692 129.921C165.796 140.727 153.107 143.248 153.107 143.248" fill="#E06B43"/>
<path d="M150.839 135.116C156.061 133.535 153.3 126.232 154.591 121.879L159.352 117.104L159.875 116.714C154.207 124.779 155.963 134.182 150.839 135.116M143.788 134.371C143.784 134.366 143.783 134.363 143.783 134.363L145.156 133.744C145.156 133.744 144.621 134.083 143.788 134.371" fill="#E0CAC1"/>
<path d="M151.388 117.404L155.141 135.229L141.288 145.544L143.436 147.652C143.436 147.652 160.035 142.081 161.692 137.639L159.207 117.404C157.776 109.227 150.399 111.973 151.388 117.404" fill="#FF8759"/>
<path d="M141.288 145.544C141.288 145.544 137.768 146.325 136.272 147.652L136.163 147.749C135.243 148.544 133.543 149.392 132.923 149.957C132.652 150.203 132.727 150.404 132.892 150.557L131.585 151.379L129.695 152.819C128.564 153.563 129.147 154.089 129.948 153.779L129.243 154.259C128.328 154.871 128.779 155.492 129.695 155.163L132.036 153.976L130.852 154.908C130.013 155.492 130.438 156.292 131.5 155.699L134.324 154.061L135.567 153.553L134.098 154.824C133.26 155.529 133.815 156.028 134.635 155.501L136.64 154.203C136.64 154.203 138.475 153.384 139.124 152.847C139.772 152.311 141.919 150.052 142.229 149.233C142.539 148.415 143.436 147.652 143.436 147.652L145.617 144.292L141.288 145.544" fill="#FF8759"/>
<path d="M133.675 138.956L130.689 141.387C130.689 141.387 126.957 143.516 125.825 144.547C124.709 145.563 123.793 146.467 123.793 146.467L123.341 148.527L123.567 149.827H123.877C123.779 150.871 124.867 150.588 125.063 149.252C124.908 150.292 126.22 149.925 126.363 148.415L126.927 146.889C126.927 146.889 129.637 145.987 130.033 145.477C130.033 145.477 130.343 145.788 130.371 146.381C130.4 146.975 130.512 147.504 130.709 147.635C131.331 148.231 131.768 148.005 131.613 147.228C131.613 147.228 131.485 146.593 131.543 145.803C131.575 145.357 132.108 144.687 132.432 144.067C132.757 143.445 133.675 140.735 133.675 140.735V138.956" fill="#FF8759"/>
<path d="M207.451 187.324C207.451 187.323 207.451 187.323 207.451 187.322C208.192 187.302 209.068 186.162 209.703 185.096C209.075 186.162 208.191 187.315 207.451 187.324ZM209.785 184.962C209.787 184.962 209.787 184.96 209.787 184.96C209.787 184.96 209.787 184.962 209.785 184.962ZM209.795 184.948C209.795 184.948 209.795 184.947 209.796 184.947C209.795 184.948 209.795 184.948 209.795 184.948ZM209.803 184.936C209.804 184.935 209.804 184.934 209.805 184.934C209.804 184.934 209.804 184.935 209.803 184.936ZM209.812 184.923C209.812 184.923 209.812 184.922 209.813 184.922C209.812 184.922 209.812 184.923 209.812 184.923ZM209.82 184.91C209.821 184.91 209.821 184.91 209.821 184.908C209.821 184.91 209.821 184.91 209.82 184.91ZM209.829 184.898V184.896V184.898ZM212.503 182.39C212.825 181.676 213.012 180.803 212.543 180.088C212.544 180.087 212.545 180.087 212.547 180.087C213.02 180.799 212.829 181.674 212.503 182.39" fill="#E4B490"/>
<path d="M207.451 187.321C207.443 185.8 208.463 184.464 209.433 183.272C210.008 182.571 210.581 181.867 211.155 181.167C211.529 180.707 211.984 180.207 212.543 180.088C213.012 180.803 212.825 181.676 212.503 182.389C212.248 182.945 211.912 183.404 211.739 183.619C211.313 184.155 210.541 183.883 209.839 184.884C209.835 184.888 209.832 184.892 209.829 184.896V184.897C209.827 184.9 209.824 184.904 209.821 184.908C209.821 184.909 209.821 184.909 209.82 184.909C209.817 184.913 209.815 184.917 209.813 184.921C209.812 184.921 209.812 184.923 209.812 184.923C209.809 184.925 209.807 184.929 209.805 184.933C209.804 184.933 209.804 184.935 209.803 184.936C209.8 184.94 209.797 184.943 209.796 184.947C209.795 184.947 209.795 184.948 209.795 184.948C209.792 184.952 209.789 184.956 209.787 184.96C209.787 184.96 209.787 184.961 209.785 184.961C209.759 185.003 209.732 185.047 209.704 185.092C209.704 185.093 209.703 185.095 209.703 185.096C209.068 186.161 208.192 187.301 207.451 187.321" fill="#E86941"/>
<path d="M138.654 127.646L139.29 127.409C138.372 124.949 138.183 122.934 137.997 120.985C137.917 120.148 137.845 119.357 137.715 118.561C137.244 115.681 136.756 112.701 137.092 109.772C137.165 109.137 137.292 108.412 137.68 107.867C138.498 106.724 140.271 106.673 141.443 107.288C142.78 107.985 143.659 109.337 144.343 110.567C145.64 112.895 146.276 115.133 146.95 117.504C147.6 119.789 148.273 122.152 149.587 124.945L150.201 124.657C148.91 121.913 148.245 119.578 147.601 117.317C146.916 114.909 146.268 112.633 144.936 110.237C144.202 108.918 143.252 107.466 141.757 106.686C140.3 105.925 138.173 106.014 137.131 107.472C136.649 108.145 136.501 108.975 136.421 109.696C136.072 112.719 136.568 115.745 137.045 118.672C137.172 119.445 137.245 120.224 137.322 121.049C137.502 122.949 137.705 125.102 138.654 127.646" fill="white"/>
<path d="M125.093 100.953C125.093 100.953 118.513 110.553 126.476 115.522L129.637 111.286L125.093 100.953Z" fill="black"/>
<path d="M135.115 114.619C135.115 114.619 138.463 114.359 138.728 115.071C140.016 118.527 142.82 118.245 143.586 113.547C144.195 109.787 143.19 107.787 143.19 107.787L134.211 106.544L135.115 114.619" fill="#FF8759"/>
<path d="M138.255 119.854C138.128 119.854 138.004 119.842 137.882 119.817C137.836 119.396 137.783 118.98 137.715 118.561C137.502 117.254 137.284 115.925 137.142 114.59C137.902 114.633 138.612 114.758 138.728 115.07C139.106 116.082 139.612 116.774 140.16 117.128C140.107 118.365 139.791 119.368 138.996 119.701C138.744 119.807 138.496 119.854 138.255 119.854M137.168 119.541C135.434 118.553 134.211 115.568 134.211 115.568L135.107 114.545L135.115 114.618C135.115 114.618 135.712 114.572 136.423 114.572C136.435 114.572 136.447 114.572 136.459 114.572C136.602 115.953 136.826 117.322 137.046 118.672C137.094 118.96 137.132 119.249 137.168 119.541" fill="#E06B43"/>
<path d="M137.882 119.817C137.636 119.768 137.398 119.672 137.168 119.541C137.132 119.249 137.094 118.96 137.046 118.672C136.826 117.323 136.602 115.953 136.459 114.572C136.68 114.573 136.914 114.579 137.142 114.591C137.284 115.925 137.502 117.255 137.715 118.561C137.783 118.98 137.836 119.396 137.882 119.817Z" fill="#E0CAC1"/>
<path d="M140.16 117.128C139.612 116.775 139.105 116.083 138.728 115.071C138.612 114.759 137.901 114.633 137.141 114.591C136.913 114.579 136.68 114.573 136.459 114.572C136.447 114.572 136.434 114.572 136.422 114.572C135.712 114.572 135.115 114.619 135.115 114.619L135.106 114.545L138.996 110.101C138.996 110.101 140.286 114.252 140.16 117.128Z" fill="#E06B43"/>
<path d="M128.149 100.953C128.149 100.953 125.283 107.164 126.089 109.857C126.72 111.969 128.903 113.828 128.903 113.828C128.903 113.828 129.524 115.861 129.92 116.2C130.315 116.538 131.048 116.2 131.048 116.2C131.048 116.2 132.404 117.724 133.815 118.006C135.227 118.289 137.485 116.75 138.728 112.748C139.971 108.746 136.075 105.528 136.075 105.528L137.824 102.93L128.149 100.953" fill="#FF8759"/>
<path d="M125.093 107.04C125.093 107.04 130.371 112.223 137.035 107.04C137.035 107.04 141.664 108.633 142.173 111.287C143.124 110.307 143.833 108.555 143.189 105.979C142.455 103.043 138.753 97.3093 132.404 96.8013C126.055 96.292 120.721 104.035 125.093 107.04" fill="black"/>
<path d="M139.564 107.325C139.762 107.815 139.794 108.359 139.73 108.884C139.427 111.373 136.75 109.857 136.367 108.209C135.892 106.165 138.774 105.376 139.564 107.325Z" fill="#FF8759"/>
<path d="M175.512 146.94L174.44 147.645C174.428 147.651 173.889 147.157 172.789 146.665C171.293 145.993 168.76 145.323 165.11 145.909C162.452 146.331 159.21 147.428 155.346 149.679L154.384 147.659C154.384 147.659 167.51 144.512 171.334 129.948C171.334 129.948 173.802 134.017 174.941 140.011C175.349 142.112 175.593 144.445 175.512 146.94" fill="white"/>
<path d="M200.803 159.744C200.589 158.719 200.843 156.324 200.831 156.299C200.737 156.025 199.712 153.139 197.741 149.8C199.712 153.139 200.737 156.025 200.831 156.299L200.844 156.325C200.844 156.325 200.589 158.719 200.803 159.744" fill="#DDB696"/>
<path d="M202.877 162.505C201.631 161.773 201.129 160.812 200.844 159.904C200.836 159.879 200.828 159.853 200.821 159.825C200.815 159.8 200.809 159.772 200.802 159.744C200.589 158.719 200.844 156.325 200.844 156.325L200.831 156.299C200.833 156.303 200.849 156.304 200.878 156.304C201.056 156.304 201.711 156.233 202.444 156.083C200.871 158.561 202.877 162.505 202.877 162.505Z" fill="#E06B43"/>
<path d="M200.879 156.304C200.849 156.304 200.833 156.303 200.831 156.299C200.737 156.026 199.712 153.139 197.741 149.8C196.583 147.838 195.097 145.72 193.281 143.884C188.199 138.762 187.4 133.422 187.4 133.422C185.151 140.998 176.313 146.527 174.673 147.503L175.227 147.128L175.512 146.94C175.512 146.939 175.512 146.936 175.512 146.935L175.513 146.934C175.595 144.44 175.352 142.108 174.944 140.008C180.556 139.263 183.265 134.398 188.187 129.478C189.785 137.352 195.125 141.296 199.747 150.051C200.683 151.84 201.603 153.819 202.444 156.083C201.711 156.234 201.056 156.304 200.879 156.304" fill="#E06B43"/>
<path d="M175.227 147.128L175.512 146.935C175.512 146.936 175.512 146.939 175.512 146.94L175.227 147.128Z" fill="#E0CAC1"/>
</svg>
