<svg width="39" height="39" viewBox="0 0 39 39" fill="none" xmlns="http://www.w3.org/2000/svg">
<rect width="39" height="39" rx="10" fill="#023F76" fill-opacity="0.21"/>
<path d="M27.5 30.25H20C19.0054 30.25 18.0516 29.8549 17.3483 29.1517C16.6451 28.4484 16.25 27.4946 16.25 26.5V19C16.25 18.0054 16.6451 17.0516 17.3483 16.3483C18.0516 15.6451 19.0054 15.25 20 15.25H27.5C28.4946 15.25 29.4484 15.6451 30.1517 16.3483C30.8549 17.0516 31.25 18.0054 31.25 19V26.5C31.25 27.4946 30.8549 28.4484 30.1517 29.1517C29.4484 29.8549 28.4946 30.25 27.5 30.25ZM20 17.75C19.6685 17.75 19.3505 17.8817 19.1161 18.1161C18.8817 18.3505 18.75 18.6685 18.75 19V26.5C18.75 26.8315 18.8817 27.1495 19.1161 27.3839C19.3505 27.6183 19.6685 27.75 20 27.75H27.5C27.8315 27.75 28.1495 27.6183 28.3839 27.3839C28.6183 27.1495 28.75 26.8315 28.75 26.5V19C28.75 18.6685 28.6183 18.3505 28.3839 18.1161C28.1495 17.8817 27.8315 17.75 27.5 17.75H20Z" fill="#023F76"/>
<path d="M17.1625 22.75H12.0875C11.2034 22.7467 10.3564 22.394 9.73117 21.7688C9.10598 21.1436 8.75329 20.2966 8.75 19.4125V11.0875C8.75329 10.2034 9.10598 9.35636 9.73117 8.73117C10.3564 8.10598 11.2034 7.75329 12.0875 7.75H20.4125C21.2966 7.75329 22.1436 8.10598 22.7688 8.73117C23.394 9.35636 23.7467 10.2034 23.75 11.0875V15.75H21.25V11.0875C21.25 10.8654 21.1618 10.6524 21.0047 10.4953C20.8476 10.3382 20.6346 10.25 20.4125 10.25H12.0875C11.8654 10.25 11.6524 10.3382 11.4953 10.4953C11.3382 10.6524 11.25 10.8654 11.25 11.0875V19.4125C11.25 19.6346 11.3382 19.8476 11.4953 20.0047C11.6524 20.1618 11.8654 20.25 12.0875 20.25H17.1625V22.75Z" fill="#023F76"/>
</svg>
