<svg width="175" height="145" viewBox="0 0 175 145" fill="none" xmlns="http://www.w3.org/2000/svg">
<path d="M166.301 115.318C166.301 116.297 165.507 117.091 164.527 117.091C163.547 117.091 162.752 116.297 162.752 115.318C162.752 114.338 163.547 113.543 164.527 113.543C165.507 113.543 166.301 114.338 166.301 115.318Z" fill="#172024"/>
<path d="M171.707 112.448C171.707 113.427 170.912 114.223 169.932 114.223C168.952 114.223 168.157 113.427 168.157 112.448C168.157 111.467 168.952 110.672 169.932 110.672C170.912 110.672 171.707 111.467 171.707 112.448Z" fill="#172024"/>
<path d="M151.804 107.886C151.804 108.866 151.009 109.661 150.029 109.661C149.049 109.661 148.256 108.866 148.256 107.886C148.256 106.906 149.049 106.113 150.029 106.113C151.009 106.113 151.804 106.906 151.804 107.886Z" fill="#172024"/>
<path d="M157.209 105.015C157.209 105.997 156.415 106.79 155.435 106.79C154.455 106.79 153.66 105.997 153.66 105.015C153.66 104.037 154.455 103.242 155.435 103.242C156.415 103.242 157.209 104.037 157.209 105.015Z" fill="#172024"/>
<path d="M139.751 120.218C139.551 118.274 139.497 116.493 140.375 115.258C136.665 105.086 128.996 99.418 130.663 89.1207C127.412 78.6167 120.658 77.95 116.491 62.9434C115.096 58.9074 115.216 54.7874 116.491 50.6047L136.54 51.022C136.096 54.8847 134.025 59.358 130.247 61.7754C133.647 68.126 135.839 76.7047 137.416 86.4114C139.584 93.0807 141.82 104.414 145.253 114.466C146.641 118.374 148.485 121.193 151.339 123.343L149.588 126.805C149.588 126.805 144.003 125.721 143.919 125.47C143.836 125.221 139.751 120.218 139.751 120.218Z" fill="#FFB294"/>
<path d="M101.067 93.5403C100.46 91.2216 101.999 89.815 104.235 88.7043C108.779 85.5776 106.486 75.4483 116.574 70.947C122.811 67.1563 127.017 62.8817 124.577 57.0243L136.165 51.0217C136.329 58.7163 134.643 66.6563 129.996 72.799C121.512 77.7643 114.208 83.5536 109.82 91.3723C109.618 93.7976 110.836 96.0697 113.322 98.2083C114.817 99.583 113.848 100.78 112.655 101.959L108.153 99.959L105.235 95.4563L101.067 93.5403" fill="#FFB294"/>
<path d="M140.375 115.258C138.417 116.527 138.5 119.092 138.916 121.01C139.833 122.552 141.152 123.498 142.668 125.762L144.096 127.25C146.947 129.143 152.047 129.388 153.84 128.388C155.007 126.763 153.613 125.16 150.111 122.319C151.445 124.494 149.921 125.554 146.459 125.262C144.813 125.012 143.711 123.26 141.917 120.886C140.275 118.39 139.173 116.924 140.375 115.258" fill="#E48D36"/>
<path d="M103.564 89.0603C100.776 89.5577 99.8372 91.3737 99.5669 93.6657C100.025 96.2497 102.853 96.431 104.611 97.9164C108.654 101.335 108.445 103.211 110.78 103.96C113.622 104.875 117.843 103.856 118.2 102.586C118.491 101.543 117.716 100.359 114.948 99.0004L111.327 96.1097C111.789 96.7657 112.508 97.4777 113.323 98.2083C114.22 99.6443 113.351 100.319 111.655 100.835C110.049 100.795 108.644 99.4484 107.028 97.3337L103.443 92.9977C102.573 91.6524 102.484 90.3363 103.564 89.0603" fill="#E48D36"/>
<path d="M136.921 81.9046C130.499 86.0112 125.484 84.3393 122.039 81.1406C118.458 77.8233 116.574 72.8539 116.574 71.0073C117.51 70.3499 117.855 69.1459 117.37 68.1486C113.632 60.4086 113.412 53.4366 117.421 47.3872C117.578 47.1539 117.737 46.9206 117.908 46.6872C118.114 47.0166 118.334 47.3233 118.568 47.6033C121.406 51.0379 126.208 50.9512 131.923 50.1446C133.524 49.9179 135.197 49.6352 136.921 49.3539C136.683 52.5926 136.776 56.1846 136.948 59.9486C137.272 67.0912 137.863 74.8379 136.921 81.9046Z" fill="#EE953D"/>
<path d="M122.039 81.1406C121.432 80.578 120.874 79.9673 120.364 79.334C117.874 76.2273 116.574 72.5406 116.574 71.0073C117.225 70.55 117.59 69.8286 117.589 69.0966C117.589 68.7753 117.518 68.4526 117.37 68.1486C115.487 64.2486 114.496 60.5433 114.491 57.0526C114.487 54.9913 114.826 53.006 115.528 51.098C117.364 54.7446 122.683 57.3713 127.601 57.3713C131.356 57.3713 134.877 55.838 136.431 52.0606C135.837 55.9273 133.238 59.5233 127.892 60.67C123.874 61.53 121.213 65.3353 121.786 69.3993C122.456 74.138 122.2 78.3433 122.039 81.1406" fill="#E48D36"/>
<path d="M134.581 16.3819C137.076 17.0059 140 24.5099 144.003 30.5966C147.429 34.2233 151.453 41.1086 155.828 47.9886L154.165 49.7939C149.705 44.1246 142.969 39.586 141.584 36.6393L134.248 26.8446L134.581 16.3819" fill="#FFB294"/>
<path d="M136.749 39.8764L137.083 49.7137C135.175 61.3323 118.908 58.0244 115.49 51.0217C116.241 47.643 118.911 46.2363 117.575 42.8777C115.73 38.2537 114.489 34.5417 114.489 34.5417C114.076 33.3537 113.709 32.2777 113.429 31.2897C112.399 27.695 112.488 25.2377 115.49 22.6497C121.255 18.407 127.182 15.6963 133.415 15.979C135.965 15.243 137.079 20.4017 136.372 24.2004C135.735 27.615 140.368 31.1764 140.587 33.567C141.021 38.227 136.749 39.8764 136.749 39.8764Z" fill="#1E619E"/>
<path d="M101.275 56.9404L99.9415 58.983L95.5227 62.151L93.6055 64.611L91.9935 67.5843C91.6456 68.1123 91.882 68.6537 92.23 68.4044L91.5206 69.655C91.0071 70.5577 91.5634 70.863 92.1883 70.155L95.2727 66.403L92.5634 70.571C92.0634 71.3644 92.6743 71.739 93.2722 70.9883L96.8148 66.8203L94.7727 70.447C94.2446 71.407 94.717 71.8497 95.481 70.9883L100.053 65.4577L99.6315 68.0724L99.579 69.4737C99.58 70.391 100.428 70.335 100.612 69.3364L100.95 68.0897L102.067 66.0697L102.512 61.0537L103.109 57.7324L101.275 56.9404" fill="#FFB294"/>
<path d="M127.601 57.3711C122.649 57.3711 117.29 54.7084 115.49 51.0217C116.094 48.3031 117.941 46.8617 117.943 44.6511C117.944 44.1151 117.835 43.5337 117.575 42.8777C115.73 38.2537 114.489 34.5418 114.489 34.5418C114.075 33.3538 113.709 32.2777 113.429 31.2897C113.697 29.7351 114.028 28.3658 114.365 28.3658C114.407 28.3658 114.448 28.3858 114.489 28.4284C121.172 35.3658 122.01 43.7537 128.211 43.7537C128.509 43.7537 128.819 43.7351 129.142 43.6951C133.067 43.2111 133.791 38.6631 133.791 38.6631C134.709 39.4604 135.607 39.8911 136.477 39.8911C136.568 39.8911 136.659 39.8858 136.749 39.8764L137.083 49.7137C136.179 55.2151 132.055 57.3711 127.601 57.3711" fill="#023F76"/>
<path d="M114.489 24.2044C112.43 24.7631 109.522 32.1937 106.514 40.4337C103.862 43.9364 102.957 52.0497 100.233 58.6084L102.512 61.0537C104.902 53.995 109.737 49.1604 110.293 43.379C112.681 39.943 115.428 36.5404 117.241 33.9311C119.797 30.4844 117.791 24.2044 114.489 24.2044" fill="#FFB294"/>
<path d="M136.921 81.9043C137.3 79.0616 137.431 76.1083 137.431 73.1283C137.431 76.1083 137.3 79.0616 136.921 81.9043" fill="#C89393"/>
<path d="M136.922 81.9043C136.922 81.9043 134.504 72.7336 134.999 67.4456C135.215 65.1176 136.066 62.3363 136.948 59.9523C137.143 64.219 137.431 68.703 137.431 73.1283C137.431 76.1083 137.3 79.0616 136.922 81.9043Z" fill="#E48D36"/>
<path d="M123.541 11.7152L122.858 19.1579C123.263 21.1739 124.039 23.1912 124.986 25.1099C126.877 28.9379 132.708 26.8232 131.725 22.6686C131.58 22.0566 131.426 21.5019 131.266 21.0272L131.109 16.9339L123.541 11.7152" fill="#FFB294"/>
<path d="M128.655 23.1406C124.494 23.1393 123.38 15.4246 123.408 15.3393L131.029 17.0299C131.029 17.0299 131.539 22.9913 128.838 23.1353C128.776 23.1393 128.715 23.1406 128.655 23.1406" fill="#FF9775"/>
<path d="M130.992 19.9442C129.026 20.8242 126.166 18.7362 124.867 17.6456C124.425 17.2749 124.082 16.8016 123.858 16.2696L122.799 13.7563L121.14 13.8856C121.14 13.8856 118.25 12.3336 118.703 6.64161C118.929 3.79628 122.546 0.942933 125.559 0.928267C130.302 0.904267 132.04 3.81493 133.299 5.7576C134.559 7.69893 133.839 11.6869 133.839 11.6869C133.839 11.6869 133.633 18.7616 130.992 19.9442" fill="#FFB294"/>
<path d="M125.099 16.2754C125.099 16.2754 129.802 13.282 131.067 6.09538C131.067 6.09538 133.315 5.50205 133.956 10.8007C136.5 6.46072 135.22 2.10338 129.872 0.532714C123.604 -1.30595 117.41 1.68338 117.682 8.46738C117.984 15.958 121.927 19.8074 123.696 21.3101C123.696 21.3101 123.635 17.4247 125.099 16.2754Z" fill="black"/>
<path d="M135.187 9.21527C135.135 8.55527 134.912 8.39128 134.642 8.86195C134.251 9.46328 134.087 9.68727 133.57 10.1499C133.3 10.4086 133.028 10.8593 132.875 11.3113C132.484 11.6086 132.586 11.5486 132.15 11.7979C132.007 11.5566 131.713 11.5153 131.354 11.6833C130.366 12.1499 129.822 12.3273 128.646 12.5006C128.008 12.5926 127.488 12.9633 127.52 13.4486C127.548 13.8819 127.561 14.1086 127.573 14.5993C127.586 15.1473 128.099 15.6566 128.702 15.5833C129.694 15.4633 130.155 15.3406 131.017 15.0113C131.461 14.8406 131.833 14.3259 131.937 13.8206C132.01 13.4593 132.047 13.2806 132.121 12.9193C132.168 12.6873 132.332 12.4579 132.513 12.3259C132.674 12.2539 132.8 12.3059 132.83 12.4846C132.879 12.7806 132.903 12.9273 132.952 13.2193C133.02 13.6313 133.335 13.734 133.686 13.4393C134.466 12.7833 134.852 12.4686 135.12 11.1473C135.235 10.5913 135.234 9.80593 135.187 9.21527" fill="black"/>
<path d="M174.468 102.726V108.539C174.465 109.727 174.044 110.562 173.368 110.965L170.758 112.458L169.784 113.023L165.597 115.411C164.926 115.801 164.008 115.747 162.996 115.163L150.421 107.95C148.37 106.783 146.716 103.906 146.722 101.53L146.716 78.2687C146.716 76.922 147.273 76.038 148.108 75.7434L147.806 75.8553L152.732 73.0367L153.424 72.6407L155.582 71.3953C156.253 71.006 157.174 71.062 158.196 71.6513L170.769 78.8647C172.81 80.0287 174.468 82.9033 174.461 85.278L174.465 101.926L174.468 102.726" fill="#46626E"/>
<path d="M167.185 80.5404L153.424 72.6404L152.732 73.0364L166.841 81.1324C168.799 82.2471 170.372 84.9977 170.372 87.2484L170.376 104.284L170.38 105.088L171.064 104.692V103.89L171.067 87.2511C171.057 84.7724 169.321 81.7564 167.185 80.5404" fill="#27373D"/>
<path d="M166.691 89.7338V112.988C166.691 115.358 165.04 116.338 162.992 115.163L161.281 114.18L160.625 113.802L150.421 107.95C148.373 106.779 146.712 103.899 146.712 101.53V78.2751C146.712 75.9044 148.373 74.9338 150.421 76.1058L162.992 83.3178C165.04 84.4924 166.691 87.3631 166.691 89.7338" fill="#27373D"/>
<path d="M166.691 89.7338V112.988C166.691 115.358 165.04 116.338 162.992 115.163L161.281 114.18L160.625 113.802L150.421 107.95C148.373 106.779 146.712 103.899 146.712 101.53V78.2751C146.712 75.9044 148.373 74.9338 150.421 76.1058L162.992 83.3178C165.04 84.4924 166.691 87.3631 166.691 89.7338" fill="#27373D"/>
<path d="M174.468 102.726L171.064 104.692L170.38 105.088L166.69 107.218V106.414L170.376 104.284L171.064 103.89L174.465 101.926L174.468 102.726Z" fill="#27373D"/>
<path d="M151.407 104.795C150.955 104.534 150.588 103.955 150.588 103.504V81.2178C150.588 80.7644 150.955 80.6097 151.407 80.8711C151.859 81.1311 152.225 81.7098 152.225 82.1618V104.45C152.225 104.9 151.859 105.056 151.407 104.795Z" fill="#46626E"/>
<path d="M156.233 107.44C155.783 107.179 155.416 106.602 155.416 106.15V83.8616C155.416 83.4096 155.783 83.255 156.233 83.5163C156.685 83.7776 157.052 84.355 157.052 84.807V107.095C157.052 107.547 156.685 107.702 156.233 107.44Z" fill="#46626E"/>
<path d="M161.061 110.086C160.609 109.826 160.243 109.247 160.243 108.795V86.5071C160.243 86.0565 160.609 85.9005 161.061 86.1618C161.513 86.4232 161.88 87.0018 161.88 87.4525V109.74C161.88 110.192 161.513 110.347 161.061 110.086Z" fill="#46626E"/>
<path d="M160.942 81.5166C160.514 81.5166 160.168 81.1713 160.168 80.7446V56.0406L154.434 52.7299V76.5406C154.434 76.9673 154.088 77.3139 153.662 77.3139C153.234 77.3139 152.888 76.9673 152.888 76.5406V51.3926C152.888 51.1166 153.036 50.8606 153.275 50.7233C153.514 50.5846 153.808 50.5846 154.047 50.7233L161.327 54.9259C161.566 55.0633 161.714 55.3193 161.714 55.5953V80.7446C161.714 81.1713 161.368 81.5166 160.942 81.5166" fill="#A3BDD6"/>
<path d="M161.948 56.1754C161.73 56.5474 161.34 56.7554 160.94 56.7554C160.746 56.7554 160.546 56.7047 160.36 56.6034L154.911 53.458L153.082 52.3994L152.98 52.334C152.502 51.9914 152.352 51.3314 152.654 50.8101C152.775 50.6074 152.947 50.4487 153.147 50.3514C153.486 50.1887 153.895 50.1887 154.243 50.3887L155.906 51.35L156.216 51.526L160.095 53.7647L161.52 54.5914C162.078 54.9127 162.268 55.6181 161.948 56.1754" fill="#27373D"/>
<path d="M159.359 53.3393L156.217 51.526C155.973 51.386 155.599 51.3926 155.457 51.0886C155.221 50.582 156.019 50.2366 156.407 50.2833C156.859 50.338 157.239 50.634 157.593 50.9193C157.983 51.2313 158.389 51.566 158.564 52.034C158.736 52.4913 158.659 52.9993 158.579 53.4806C158.469 54.142 158.36 54.802 158.251 55.462C158.224 55.6206 158.188 55.7953 158.059 55.8913C157.844 56.05 157.531 55.874 157.397 55.6433C157.005 54.958 157.513 53.9846 157.053 53.3446C156.781 52.9673 156.235 52.63 156.004 52.2913C155.753 51.9273 155.529 51.4246 155.239 51.1006C155.024 50.862 154.819 50.7926 154.639 50.6846C154.375 50.5273 154.135 50.3753 153.759 50.238C153.856 49.91 153.933 49.574 154.02 49.2433L152.203 46.8673L153.373 45.822L155.696 47.8806L156.936 48.8966L158.7 51.03C158.844 51.2006 159.359 53.3393 159.359 53.3393Z" fill="#FFB294"/>
<path d="M154.576 53.1085C154.593 52.9752 154.62 52.8405 154.691 52.7271C154.76 52.6125 154.88 52.5205 155.013 52.5178C155.157 52.5151 155.288 52.6138 155.363 52.7365C155.437 52.8591 155.467 53.0045 155.496 53.1445C155.465 52.8485 155.716 52.6165 156.012 52.6525C156.216 52.6778 156.396 52.9711 156.491 53.3591C156.533 53.0751 156.844 52.8631 157.124 52.9271C157.36 52.9818 157.532 53.1991 157.601 53.4311C157.672 53.6645 157.659 53.9125 157.645 54.1551C157.627 54.4791 157.609 54.8058 157.591 55.1298L157.569 55.2445L157.436 55.3578C157.237 55.4391 157.009 55.3671 156.817 55.2698C156.625 55.1725 156.44 55.0485 156.228 55.0165C156.027 54.9871 155.797 55.0378 155.632 54.9191C155.459 54.7938 155.435 54.5338 155.271 54.3965C155.057 54.2191 154.695 54.3138 154.5 54.1165L154.275 53.7418C154.169 53.6365 153.972 53.4165 153.893 53.2871C153.627 52.8511 154.116 52.1365 154.576 53.1085" fill="#FFB294"/>
<path d="M105.377 87.1912L105.338 101.03C105.338 102.159 104.944 102.946 104.301 103.312L102.242 104.506L101.586 104.887L96.903 107.616L97.1395 107.418C96.4963 107.97 95.4994 108.008 94.3843 107.366L75.1535 96.2552C73.1863 95.1272 71.5988 92.3845 71.6119 90.1285L71.6515 76.2898C71.6515 75.1752 72.0447 74.3885 72.6874 74.0205L76.6624 71.6978L77.5936 71.1605L80.0734 69.7178C80.7286 69.3511 81.6202 69.4032 82.6046 69.9672L101.835 81.0778C103.803 82.2058 105.39 84.9485 105.377 87.1912" fill="#46626E"/>
<path d="M98.5823 82.9419L79.3517 71.8432C78.8271 71.5419 78.2235 71.2925 77.5938 71.1605L76.6626 71.6979C77.7517 71.7259 78.7479 72.2499 79.0235 72.4072L98.2542 83.5179C100.117 84.5939 101.639 87.2045 101.626 89.3552L101.586 104.887L102.242 104.506L102.282 89.3552C102.294 87.0072 100.629 84.1339 98.5823 82.9419" fill="#27373D"/>
<path d="M94.4421 85.3738C96.4026 86.5058 97.9885 89.2431 97.9817 91.4951L97.9431 105.334C97.9363 107.586 96.3401 108.496 94.3802 107.364L75.1505 96.2618C73.1906 95.1298 71.6041 92.3831 71.6109 90.1311L71.6499 76.2911C71.6567 74.0405 73.2526 73.1405 75.213 74.2712L94.4421 85.3738Z" fill="#27373D"/>
<path d="M94.4421 85.3738C96.4026 86.5058 97.9885 89.2431 97.9817 91.4951L97.9431 105.334C97.9363 107.586 96.3401 108.496 94.3802 107.364L75.1505 96.2618C73.1906 95.1298 71.6041 92.3831 71.6109 90.1311L71.6499 76.2911C71.6567 74.0405 73.2526 73.1405 75.213 74.2712L94.4421 85.3738Z" fill="#27373D"/>
<path d="M97.9819 80.3229L93.5548 82.8789L91.1772 81.5042L95.6043 78.9496L97.9819 80.3229Z" fill="#ECF7FF"/>
<path d="M86.5865 73.8457L82.1589 76.4004L79.7808 75.0284L84.2085 72.4724L86.5865 73.8457Z" fill="#ECF7FF"/>
<path d="M5.9541 119.521L7.5541 118.603C8.11815 118.281 8.89523 118.326 9.75357 118.818C11.4812 119.81 12.8786 122.229 12.8786 124.23C12.8786 125.238 12.5244 125.946 11.9525 126.274L10.353 127.19C10.9244 126.863 11.278 126.155 11.278 125.149C11.278 123.146 9.8817 120.727 8.15357 119.735C7.29524 119.243 6.51815 119.198 5.9541 119.521" fill="#46626E"/>
<path d="M5.02881 121.563C5.02881 119.561 6.42569 118.745 8.15381 119.735C9.88194 120.727 11.2783 123.146 11.2783 125.149C11.2783 127.15 9.88194 127.967 8.15381 126.975C6.42569 125.984 5.02881 123.565 5.02881 121.563Z" fill="#46626E"/>
<path d="M5.9541 119.521L7.5541 118.603C8.11815 118.281 8.89523 118.326 9.75357 118.818C11.4812 119.81 12.8786 122.229 12.8786 124.23C12.8786 125.238 12.5244 125.946 11.9525 126.274L10.353 127.19C10.9244 126.863 11.278 126.155 11.278 125.149C11.278 123.146 9.8817 120.727 8.15357 119.735C7.29524 119.243 6.51815 119.198 5.9541 119.521" fill="black"/>
<path d="M5.02881 121.563C5.02881 119.561 6.42569 118.745 8.15381 119.735C9.88194 120.727 11.2783 123.146 11.2783 125.149C11.2783 127.15 9.88194 127.967 8.15381 126.975C6.42569 125.984 5.02881 123.565 5.02881 121.563Z" fill="#4D4D4D"/>
<path d="M6.63623 122.486C6.63623 121.514 7.31436 121.117 8.15342 121.599C8.99196 122.079 9.67062 123.254 9.67062 124.227C9.67062 125.198 8.99196 125.595 8.15342 125.114C7.31436 124.631 6.63623 123.456 6.63623 122.486Z" fill="black"/>
<path d="M6.63623 122.486C6.63623 121.514 7.31436 121.117 8.15342 121.599C8.99196 122.079 9.67062 123.254 9.67062 124.227C9.67062 125.198 8.99196 125.595 8.15342 125.114C7.31436 124.631 6.63623 123.456 6.63623 122.486Z" fill="black"/>
<path d="M22.4907 110.062L24.0902 109.145C24.6547 108.821 25.4313 108.867 26.2902 109.359C28.0178 110.35 29.4141 112.77 29.4141 114.771C29.4141 115.779 29.061 116.486 28.4891 116.814L26.8886 117.731C27.4605 117.403 27.8146 116.697 27.8146 115.689C27.8146 113.687 26.4178 111.269 24.6897 110.278C23.8318 109.785 23.0547 109.738 22.4907 110.062Z" fill="#46626E"/>
<path d="M21.5649 112.104C21.5649 110.103 22.9619 109.286 24.6895 110.278C26.4176 111.268 27.8144 113.687 27.8144 115.688C27.8144 117.691 26.4176 118.507 24.6895 117.516C22.9619 116.526 21.5649 114.107 21.5649 112.104Z" fill="#46626E"/>
<path d="M22.4907 110.062L24.0902 109.145C24.6547 108.821 25.4313 108.867 26.2902 109.359C28.0178 110.35 29.4141 112.77 29.4141 114.771C29.4141 115.779 29.061 116.486 28.4891 116.814L26.8886 117.731C27.4605 117.403 27.8146 116.697 27.8146 115.689C27.8146 113.687 26.4178 111.269 24.6897 110.278C23.8318 109.785 23.0547 109.738 22.4907 110.062Z" fill="black"/>
<path d="M21.5649 112.104C21.5649 110.103 22.9619 109.286 24.6895 110.278C26.4176 111.268 27.8144 113.687 27.8144 115.688C27.8144 117.691 26.4176 118.507 24.6895 117.516C22.9619 116.526 21.5649 114.107 21.5649 112.104Z" fill="#4D4D4D"/>
<path d="M23.1729 113.026C23.1729 112.055 23.851 111.658 24.6895 112.139C25.5286 112.621 26.2067 113.795 26.2067 114.767C26.2067 115.738 25.5286 116.135 24.6895 115.655C23.851 115.173 23.1729 113.999 23.1729 113.026Z" fill="black"/>
<path d="M23.1729 113.026C23.1729 112.055 23.851 111.658 24.6895 112.139C25.5286 112.621 26.2067 113.795 26.2067 114.767C26.2067 115.738 25.5286 116.135 24.6895 115.655C23.851 115.173 23.1729 113.999 23.1729 113.026Z" fill="black"/>
<path d="M52.1374 125.503C49.2781 128.191 45.8802 127.759 42.601 125.634C41.25 124.479 40.1745 123.207 39.689 121.712C38.8098 118.444 35.3734 114.234 36.213 111.323C36.751 110.456 37.564 109.735 38.4036 109.184C39.2041 108.647 40.0302 108.279 40.6729 108.068L44.1754 107.046L48.124 110.968L46.838 115.1L49.0156 119.835C49.1604 120.006 49.3041 120.19 49.4354 120.36C49.6322 120.596 49.8161 120.834 49.9994 121.068C50.8786 122.224 51.5604 123.299 51.9021 124.218C52.0724 124.69 52.164 125.11 52.1374 125.503Z" fill="black"/>
<path d="M52.1374 125.503C49.2781 128.191 45.8802 127.759 42.601 125.634C41.25 124.479 40.1745 123.207 39.689 121.712C38.8098 118.446 35.3734 114.234 36.213 111.323C36.751 110.456 37.564 109.735 38.403 109.184C38.2984 109.511 38.1145 109.894 38.1016 110.194C38.0754 110.838 38.2068 111.48 38.351 112.11C38.85 114.379 39.3478 116.662 39.8464 118.931C40.1218 120.176 40.8437 121.298 41.4344 122.412C42.6546 124.722 44.4958 126.168 47.0926 126.102C47.6573 126.088 48.5568 126.184 48.963 125.791C49.3697 125.386 49.814 124.491 50.2073 124.07C50.7188 123.532 51.3114 123.783 51.9021 124.218C52.0724 124.69 52.164 125.11 52.1374 125.503" fill="black"/>
<path d="M95.0857 144.484C88.0805 144.406 90.3371 143.75 87.6215 143.711C85.8377 143.802 84.2111 143.724 83.2007 142.988C82.8595 141.808 82.6633 140.536 82.5715 139.263C82.4398 137.375 82.5455 135.472 82.7809 133.832L89.4054 133.098L94.3247 136.18C94.8893 136.43 95.5185 136.667 96.1742 136.89C96.6471 137.06 97.145 137.204 97.6174 137.362C99.1393 137.834 100.622 138.254 101.539 138.66C102.064 138.895 102.418 139.106 102.484 139.33C103.245 142.608 98.3647 144.603 95.0857 144.484" fill="black"/>
<path d="M95.0854 144.484C88.0802 144.406 90.3369 143.75 87.6213 143.711C85.8374 143.802 84.2109 143.724 83.2005 142.988C82.8593 141.808 82.663 140.536 82.5713 139.263C83.0958 139.552 83.6598 140.024 84.001 140.195C85.0114 140.707 86.113 140.995 87.215 141.283C90.8745 142.254 94.6656 143.226 98.4177 142.674C99.5062 142.504 100.805 141.966 100.884 140.863C100.91 140.299 100.595 139.71 100.818 139.184C100.949 138.883 101.225 138.712 101.539 138.66C102.064 138.895 102.418 139.106 102.484 139.33C103.245 142.608 98.3645 144.603 95.0854 144.484" fill="black"/>
<path d="M83.8511 72.3244L84.2651 68.6231L85.3869 67.0965L84.0427 63.1618C84.0427 63.1618 88.4995 63.9071 88.2391 63.9751C87.9787 64.0431 89.3719 68.3738 89.3719 68.3738C89.3719 68.3738 90.3407 72.4031 90.3407 72.6685C90.3407 72.9325 90.3407 75.8071 90.3407 75.8071L88.1 75.0164L83.8511 72.3244" fill="#FFB294"/>
<path d="M81.4833 73.4979C80.7958 73.6419 79.8535 73.1513 80.2447 72.1313C81.0567 70.8179 82.8431 69.9606 83.9625 70.4673L88.377 73.0393L88.0999 75.0166L83.851 72.3246C83.375 72.0233 82.753 72.1073 82.3734 72.5233L81.4833 73.4979" fill="#333333"/>
<path d="M88.3771 73.0392C87.8276 73.3619 87.5479 74.7978 88.2495 75.1165C89.3745 75.8645 89.3136 76.8045 89.6219 78.2778C90.1651 79.1258 91.3349 78.7365 91.3349 78.1418C90.9631 75.9032 89.8896 73.5432 88.3771 73.0392Z" fill="#333333"/>
<path d="M83.3292 73.642L82.9213 72.6686C82.9213 72.6686 82.8667 71.61 83.3448 71.394C83.8219 71.1766 86.3593 72.6686 86.3593 72.6686C86.3593 72.6686 88.2593 73.9846 88.3771 74.29C88.4959 74.594 88.2495 75.1166 88.2495 75.1166C88.2495 75.1166 88.6833 75.418 89.0271 75.9313C89.2703 76.2966 89.3844 76.8486 89.3719 76.7873C89.3604 76.7273 85.6812 75.5566 85.5459 75.5113C85.4099 75.4659 83.3292 73.642 83.3292 73.642" fill="#FFB294"/>
<path d="M87.0957 68.6231L86.8457 71.3725L87.8321 72.6551L87.9826 75.4098L89.0269 75.9312L89.4061 72.2778L88.9493 69.0992L87.0957 68.6231" fill="#FFB294"/>
<path d="M84.5931 43.8285L81.9431 29.3138H72.563L75.3707 44.9445C75.5254 45.3712 75.6806 45.8005 75.8354 46.2299C79.2625 46.7045 82.1811 45.6845 84.5931 43.8285" fill="#E48D36"/>
<path d="M84.5932 43.8285C82.1812 45.6845 79.2625 46.7032 75.8354 46.2299C78.8484 54.5792 81.9579 63.4339 85.4912 67.8179C86.3511 68.9272 88.763 68.1459 88.975 66.8685L85.3869 48.1752L84.5932 43.8285" fill="#FFB294"/>
<path d="M90.7216 133.933C86.7362 137.553 83.5898 137.553 82.0018 137.309C81.742 137.262 81.2836 136.239 80.7185 134.545C78.3366 127.397 74.0904 108.383 75.4346 100.335C74.106 95.3394 72.1663 88.0407 70.5163 83.5034L70.4096 83.1834C70.2726 82.8327 70.1658 82.4967 70.0278 82.206C69.5242 80.9074 69.0508 79.9767 68.669 79.5794C68.5314 79.442 68.394 79.3661 68.2866 79.3661L71.2961 72.478L72.2882 70.1874L73.9076 66.4754L81.9409 64.826C82.8565 67.7887 83.4825 74.6314 84.292 77.4714C86.0029 83.55 87.3617 91.034 88.2789 96.638C88.4008 97.3554 88.4309 98.074 88.37 98.8074C87.9424 103.389 88.6294 124.143 90.7216 133.933" fill="#1E619E"/>
<path d="M75.1772 104.006C75.1783 102.875 75.2324 101.837 75.3491 100.918C75.2324 101.837 75.1783 102.875 75.1772 104.006Z" fill="#92CFD8"/>
<path d="M80.7181 134.528C78.6477 128.33 75.1692 113.155 75.1769 104.006C75.178 102.875 75.2321 101.836 75.3488 100.918C75.3744 100.718 75.4029 100.523 75.4342 100.335C74.1056 95.339 72.166 88.0403 70.516 83.503L70.4092 83.183C70.5624 82.5577 70.6998 81.931 70.8373 81.2883L72.0534 78.171C75.0618 77.3696 77.9488 75.6336 81.6274 72.519L82.3733 72.523C76.6624 80.071 78.5436 89.0736 79.2982 99.9216C79.2982 99.9216 80.1378 127.976 80.7181 134.528" fill="#023F76"/>
<path d="M75.0523 70.4314L72.7616 76.3567L70.8376 81.2887C70.7002 81.9314 70.5627 82.5581 70.4095 83.1834C70.1048 84.4821 69.8142 85.7954 69.4934 87.0474C68.3783 91.6287 67.2028 95.9047 65.8892 99.57C65.4622 100.791 64.6824 101.846 63.6439 102.61C60.0548 105.282 51.9762 111.697 46.8752 113.422C43.0419 114.721 41.6064 109.269 41.4382 108.093C41.408 107.879 41.4538 107.65 41.5756 107.375C42.9808 104.275 53.7939 97.7834 53.3971 96.2567C53.519 96.1954 54.4966 83.4434 55.3819 77.106C55.4887 76.3567 55.596 75.6087 55.7335 74.8754C55.8247 74.3567 55.9163 73.8367 56.0231 73.318C56.1147 72.9047 56.2064 72.5074 56.2986 72.0967L56.4204 68.782L58.4819 68.9647L72.2882 70.1874L75.0523 70.4314" fill="#1E619E"/>
<path d="M41.5757 107.375C42.9565 104.33 53.4169 98.011 53.4075 96.3417C53.4075 96.311 53.4038 96.283 53.3971 96.2563C53.5185 96.195 54.4961 83.4523 55.3809 77.1123C58.2475 77.635 60.683 78.0803 62.8314 78.3697L62.8351 78.3723L57.3065 96.9443C57.3065 96.9443 45.5622 104.456 41.5757 107.375" fill="#023F76"/>
<path d="M74.3267 22.6873L79.6528 39.3486C79.6528 39.3486 83.5532 33.1073 81.508 27.7313C79.8804 23.4526 74.3267 22.6873 74.3267 22.6873Z" fill="#E48D36"/>
<path d="M83.9616 70.4604C75.4351 78.2524 71.2641 79.4977 62.8419 78.371C60.6903 78.0817 58.2507 77.635 55.3777 77.1124C54.8657 75.287 54.6569 73.779 54.6173 72.2843C52.2433 62.1177 52.4657 57.959 51.784 47.8577C51.5605 44.487 51.2324 40.4604 50.6689 35.331C54.4199 31.015 58.9329 27.0003 64.2589 23.447H75.8808C78.5569 25.951 80.0261 29.9657 80.8007 34.819C80.8007 34.819 83.2137 64.2684 83.9616 70.4604Z" fill="#E9923C"/>
<path d="M71.4916 32.6563C71.2082 33.2163 70.8296 33.6176 70.3353 33.763C65.5821 35.1643 61.6868 29.7416 62.2305 26.5469C62.6749 23.2603 62.9316 21.4723 62.9316 21.4723L72.1238 23.7403C72.1238 23.7403 72.2233 24.6016 72.2774 25.8189C72.3692 27.8883 72.3384 30.987 71.4916 32.6563" fill="#FFB294"/>
<path d="M69.9864 33.1538C65.6432 33.1538 64.2568 24.9698 64.2568 24.9698L72.2776 25.8191C72.2984 26.2885 72.3131 26.8098 72.3131 27.3551C72.3136 29.2191 72.147 31.3658 71.4918 32.6565C71.036 32.9671 70.535 33.1538 69.9864 33.1538Z" fill="#FF9775"/>
<path d="M63.6499 23.0698C63.6499 23.0698 64.6458 27.0484 66.4265 28.7671C68.2073 30.4857 71.0431 31.3444 72.1239 31.4004C73.2046 31.4551 74.0546 31.3618 74.7573 30.5378C75.4593 29.7151 75.8901 22.1431 75.8901 22.1431C75.8693 19.2191 75.8202 18.3364 75.4734 16.7084C74.962 14.3098 73.2254 8.99374 66.2354 9.95107C62.863 10.4137 60.7776 12.8711 60.3374 15.8404C59.9885 18.1991 61.8786 22.3991 61.8786 22.3991L63.6499 23.0698" fill="#FFB294"/>
<path d="M61.7988 22.8886L65.1187 24.6606L65.3692 22.674C65.3556 21.726 66.1551 20.9647 67.101 21.034C68.6926 21.154 71.14 21.07 73.4811 19.9206C75.7072 18.8273 76.0931 17.3353 76.0931 17.3353C77.2155 13.026 71.5363 9.69799 67.2572 9.84199C62.0598 10.0167 59.9556 13.5046 59.9478 16.5846C59.94 19.3833 61.7988 22.8886 61.7988 22.8886" fill="black"/>
<path d="M62.5412 20.2046C62.0822 19.9753 61.4473 20.0073 61.1385 20.418C60.9656 20.6473 60.9235 20.9566 60.9661 21.242C61.0093 21.526 61.1297 21.7926 61.2568 22.0513C61.4765 22.5006 61.7208 22.938 61.988 23.362C62.2047 23.706 62.4719 24.066 62.8683 24.1593C63.2735 24.2553 63.7604 24.5353 63.9792 24.1819C64.1989 23.8273 64.1755 22.866 64.0937 22.458C63.9208 21.59 63.3568 20.6153 62.5412 20.2046" fill="#FFB294"/>
<path d="M42.9591 45.6376L39.8086 49.8496C36.1779 55.1056 29.9028 63.6363 29.9028 64.8349C29.9028 66.0323 33.2643 65.7043 32.7722 66.7709C32.2804 67.8376 41.4238 61.7069 45.055 55.5056L48.5274 52.4389C45.6727 51.1963 43.632 48.5616 42.9591 45.6376Z" fill="#FFB294"/>
<path d="M37.4529 84.734L31.9169 109.606C31.3923 111.954 29.0445 114.985 26.6705 116.349L12.4762 124.547C11.0596 125.361 9.95801 125.399 9.40645 124.797L9.49916 124.914L0.486657 117.267C0.0408232 116.887 -0.13001 116.153 0.106448 115.117L0.867386 111.718L1.18197 110.301L5.64238 90.258C6.16686 87.8953 8.51478 84.8793 10.8893 83.502L25.083 75.3153C26.421 74.542 27.4835 74.45 28.0601 74.9486L29.0575 75.8007L29.7002 76.338L37.0726 82.5833L36.9674 82.5313C37.4919 82.898 37.7023 83.6327 37.4529 84.734" fill="#FEDE5D"/>
<path d="M29.7 76.3379C29.2282 76.3792 28.6506 76.5885 28.0339 76.9432L13.8407 85.1405C11.5453 86.4659 9.24952 89.4045 8.75108 91.6739L3.95004 113.214L3.31982 113.069L8.10837 91.5299C8.64588 89.1032 11.0724 85.9805 13.5126 84.5632L27.7058 76.3792C28.1787 76.1032 28.6375 75.9059 29.0574 75.8005L29.7 76.3379" fill="#27373D"/>
<path d="M12.4761 124.546L26.6637 116.354C29.0418 114.98 31.3949 111.954 31.9189 109.6L37.4542 84.731C37.9782 82.3777 36.4761 81.583 34.098 82.955L19.9105 91.147C17.5313 92.5203 15.1808 95.539 14.6574 97.8937L9.12145 122.762C8.59749 125.116 10.0975 125.919 12.4761 124.546Z" fill="#27373D"/>
<path d="M19.7099 85.9111C19.7099 85.9111 23.3901 80.9725 27.9812 81.6698L26.1781 80.0711C26.1781 80.0711 21.5869 80.6045 18.5938 84.4565L19.7099 85.9111" fill="#27373D"/>
<path d="M12.8437 119.063L12.0698 120.114L0.867188 111.718L1.18177 110.3L12.8437 119.063Z" fill="#27373D"/>
<path d="M27.1837 71.1549C26.8331 71.0802 26.4826 71.3122 26.4107 71.6682L23.2862 87.2149C23.1186 87.8882 24.2253 87.9282 24.5858 87.4042L27.6971 71.9269C27.7691 71.5722 27.5383 71.2269 27.1837 71.1549Z" fill="white"/>
<path d="M33.0801 67.6793C32.7315 67.606 32.379 67.838 32.3071 68.1927L29.1025 84.142C28.8785 84.7114 29.8618 84.9154 30.3763 84.4594L33.5935 68.4514C33.6654 68.0967 33.4347 67.7513 33.0801 67.6793Z" fill="white"/>
<path d="M25.4435 74.0405C24.9904 74.0405 24.5492 73.8072 24.306 73.3845C23.9435 72.7565 24.1586 71.9552 24.7862 71.5925L32.8915 66.9138C33.517 66.5512 34.3211 66.7645 34.6836 67.3938C35.0462 68.0218 34.8315 68.8232 34.2028 69.1858L26.0982 73.8659C25.8919 73.9845 25.6664 74.0405 25.4435 74.0405" fill="#27373D"/>
<path d="M12.4761 124.546L26.6637 116.354C29.0418 114.98 31.3949 111.954 31.9189 109.6L37.4542 84.731C37.9782 82.3777 36.4761 81.583 34.098 82.955L19.9105 91.147C17.5313 92.5203 15.1808 95.539 14.6574 97.8937L9.12145 122.762C8.59749 125.116 10.0975 125.919 12.4761 124.546Z" fill="#BA7200"/>
<path d="M27.6781 66.5181C26.7978 67.7021 26.5729 69.2327 26.376 70.6954C26.8942 70.4221 27.4125 70.1501 27.9306 69.8781C28.1208 70.8887 28.527 71.8581 29.1136 72.7021C29.2562 72.9074 29.439 73.1221 29.6885 73.1421C30.176 73.1794 30.3593 72.4994 30.263 72.0194C30.0598 71.0047 29.4202 69.8981 29.9765 69.0261C30.4864 68.2274 31.6849 68.2074 32.351 67.5341C32.7666 67.1154 32.9114 66.5047 33.0281 65.9247C33.2786 64.6701 32.9697 61.8994 31.2958 63.3981C30.1401 64.4341 28.612 65.2594 27.6781 66.5181" fill="#FFB294"/>
<path d="M26.6006 73.5753C26.6823 73.926 26.9365 73.9113 27.2725 74.0406C27.6261 74.178 27.9646 73.7993 28.3407 73.8486C28.9271 73.9246 29.4449 73.7086 30.023 73.2619C30.2474 73.0886 30.8391 73.3166 31.0407 73.1166C31.1927 72.9646 31.2891 72.7606 31.4501 72.6166C31.9741 72.1526 32.4137 71.5086 32.2569 70.5273C32.1329 69.7553 31.3323 70.3246 31.1807 70.0953C31.0105 69.8393 30.6662 69.7339 30.3725 69.8926C29.5099 70.3553 29.2667 69.7646 28.6251 70.6166C28.4698 70.8233 28.135 70.8366 28.0069 71.0606C27.8203 71.3846 27.9657 71.7913 27.9501 72.1646C27.9261 72.7353 27.4662 73.0753 26.9834 73.3273C26.8203 73.4233 26.7047 73.4926 26.6006 73.5753" fill="#FFB294"/>
<path d="M62.8416 78.3711C62.8384 78.3698 62.8348 78.3698 62.831 78.3698C60.6826 78.0804 58.2472 77.6351 55.3805 77.1124C55.3796 77.1124 55.3785 77.1124 55.3774 77.1124C54.8654 75.2871 54.6566 73.7791 54.617 72.2844C52.243 62.1178 52.4654 57.9591 51.7837 47.8578C52.5181 46.4018 53.6722 44.7631 55.2201 44.5004C55.417 44.4671 55.5962 44.4511 55.7586 44.4511C57.3514 44.4511 57.3764 45.9991 57.293 47.4391C57.0045 52.3844 56.9916 57.3684 57.6342 62.2884C58.3686 67.9018 59.9957 73.4911 62.8416 78.3711Z" fill="#D4831B"/>
<path d="M50.6741 35.3258L42.9595 45.6378C43.6324 48.5618 46.4288 52.1191 49.2835 53.3618L56.3689 45.5098C62.1799 40.7818 57.8605 31.4138 50.6741 35.3258Z" fill="#E48D36"/>
</svg>
