<svg width="896" height="797" viewBox="0 0 896 797" fill="none" xmlns="http://www.w3.org/2000/svg">
<g clip-path="url(#clip0_247_3422)">
<path d="M329.244 793.178C331.115 791.077 332.251 787.757 331.953 784.525C331.655 781.294 329.809 778.323 327.415 777.636C325.021 776.95 322.293 778.85 321.565 781.959C321.165 775.965 320.704 769.719 318.307 764.615C316.137 759.993 312.377 756.685 308.303 756.094C304.229 755.502 299.939 757.737 297.398 762.012C294.858 766.287 294.235 772.503 296.015 777.411C297.326 781.027 299.741 783.718 302.272 785.907C310.345 792.892 320.36 795.252 329.89 793.387L329.244 793.178Z" fill="#F2F2F2"/>
<path d="M302.764 769.082C306.577 771.514 310.074 774.233 313.206 777.202C316.338 780.167 319.096 783.363 321.44 786.745C322.75 788.642 323.928 790.594 324.966 792.592C325.178 792.998 324.335 793.175 324.126 792.773C322.286 789.251 320.01 785.879 317.33 782.705C314.664 779.542 311.611 776.589 308.217 773.888C306.297 772.361 304.271 770.918 302.148 769.565C301.713 769.287 302.333 768.807 302.764 769.082H302.764Z" fill="white"/>
<path d="M818.821 329.538H695.807C693.951 329.536 692.171 328.798 690.859 327.486C689.547 326.173 688.809 324.394 688.807 322.538V307.779C688.809 305.923 689.547 304.144 690.859 302.831C692.171 301.519 693.951 300.781 695.807 300.779H818.821C820.677 300.781 822.456 301.519 823.768 302.831C825.081 304.144 825.819 305.923 825.821 307.779V322.538C825.819 324.394 825.081 326.173 823.768 327.486C822.456 328.798 820.677 329.536 818.821 329.538V329.538Z" fill="#E48D36"/>
<path d="M802.221 306.97L749.796 259.701C748.667 258.682 747.215 258.092 745.695 258.034C744.175 257.975 742.683 258.452 741.479 259.382L626.748 297.263C625.112 297.805 623.758 298.974 622.983 300.513C622.208 302.052 622.075 303.836 622.614 305.473L627.241 319.489C627.508 320.3 627.932 321.051 628.489 321.698C629.046 322.346 629.725 322.877 630.488 323.261C631.251 323.645 632.082 323.874 632.934 323.936C633.786 323.999 634.641 323.892 635.452 323.623L740.695 288.873L783.632 327.587C784.822 328.666 786.371 329.262 787.977 329.26C788.091 329.26 788.206 329.257 788.32 329.251C789.173 329.209 790.01 328.998 790.781 328.631C791.552 328.264 792.242 327.748 792.813 327.112L802.696 316.15C803.848 314.869 804.446 313.183 804.357 311.462C804.268 309.741 803.5 308.126 802.221 306.97V306.97Z" fill="#E48D36"/>
<path d="M221.705 660.438C220.114 660.44 218.589 661.072 217.464 662.197C216.339 663.322 215.706 664.847 215.705 666.438V789.452C215.706 791.043 216.339 792.568 217.464 793.693C218.589 794.818 220.114 795.45 221.705 795.452H236.464C238.055 795.45 239.58 794.818 240.705 793.693C241.83 792.568 242.463 791.043 242.464 789.452V666.438C242.463 664.847 241.83 663.322 240.705 662.197C239.58 661.072 238.055 660.44 236.464 660.438H221.705Z" fill="#E48D36"/>
<path d="M267.656 796.452H252.897C251.041 796.45 249.262 795.712 247.95 794.4C246.637 793.087 245.899 791.308 245.897 789.452V666.438C245.899 664.582 246.637 662.803 247.95 661.491C249.262 660.178 251.041 659.44 252.897 659.438H267.656C269.512 659.44 271.292 660.178 272.604 661.491C273.916 662.803 274.654 664.582 274.656 666.438V789.452C274.654 791.308 273.916 793.087 272.604 794.4C271.292 795.712 269.512 796.45 267.656 796.452V796.452Z" fill="#E48D36"/>
<path d="M291.822 675.975C291.822 675.975 297.398 726.119 241.102 724.416C184.807 722.713 206.71 673.441 206.71 673.441C206.71 673.441 218.474 664.196 248.212 673.138C277.951 682.079 291.822 675.975 291.822 675.975Z" fill="#CCCCCC"/>
<path d="M267.63 590.638C264.538 590.644 261.526 589.652 259.042 587.81C256.558 585.969 254.734 583.376 253.841 580.415C252.947 577.455 253.032 574.286 254.083 571.377C255.133 568.469 257.093 565.977 259.672 564.271L356.1 500.451C356.867 499.944 357.726 499.592 358.628 499.417C359.53 499.241 360.458 499.245 361.359 499.429C362.26 499.612 363.116 499.971 363.878 500.485C364.64 500.999 365.293 501.659 365.801 502.425L373.947 514.733C374.969 516.282 375.336 518.173 374.965 519.991C374.595 521.81 373.519 523.407 371.973 524.433L275.545 588.254C273.199 589.81 270.445 590.64 267.63 590.638V590.638Z" fill="#E48D36"/>
<path d="M250.122 531.559C278.288 531.559 301.122 508.726 301.122 480.559C301.122 452.393 278.288 429.559 250.122 429.559C221.955 429.559 199.122 452.393 199.122 480.559C199.122 508.726 221.955 531.559 250.122 531.559Z" fill="#E48D36"/>
<path d="M250.159 501.968C253.465 501.876 257.579 501.762 260.749 499.446C261.693 498.728 262.468 497.813 263.021 496.764C263.574 495.715 263.891 494.558 263.949 493.373C264.007 492.532 263.868 491.688 263.546 490.909C263.223 490.129 262.724 489.435 262.089 488.88C260.433 487.481 258.016 487.153 255.411 487.919L258.11 468.193L256.128 467.922L252.955 491.112L254.61 490.352C256.528 489.472 259.161 489.025 260.798 490.408C261.2 490.769 261.513 491.218 261.713 491.721C261.913 492.223 261.994 492.764 261.951 493.303C261.902 494.184 261.664 495.045 261.253 495.826C260.842 496.608 260.268 497.291 259.569 497.831C257.103 499.633 253.823 499.865 250.104 499.969L250.159 501.968Z" fill="#2F2E41"/>
<path d="M278.68 469.894H267.909V471.894H278.68V469.894Z" fill="#2F2E41"/>
<path d="M244.68 469.894H233.909V471.894H244.68V469.894Z" fill="#2F2E41"/>
<path d="M198.605 686.54C198.605 686.54 194.202 536.825 255.849 547.099C317.496 557.374 291.81 701.951 291.81 701.951C291.81 701.951 278.6 728.372 246.308 699.016C214.017 669.66 198.605 686.54 198.605 686.54Z" fill="#2F2E41"/>
<path d="M221.356 437.483C231.279 430.745 243.803 435.322 253.446 440.13C262.81 444.8 273.362 450.742 283.958 446.244C288.096 444.487 291.459 441.051 292.044 436.454C292.74 430.977 289.429 425.85 285.745 422.127C281.742 418.296 277.079 415.223 271.98 413.055C266.982 410.806 261.716 409.205 256.312 408.29C245.607 406.441 234.615 407.176 224.251 410.434C213.887 413.692 204.452 419.379 196.731 427.022C189.262 434.64 183.491 443.754 179.798 453.763C176.105 463.772 174.574 474.45 175.306 485.094C176.148 496.439 179.772 508.008 187.041 516.914C193.862 525.27 204.074 531.145 214.974 531.635C217.645 531.76 220.321 531.543 222.937 530.988C224.82 530.587 225.625 533.478 223.734 533.881C212.382 536.302 200.621 532.705 191.617 525.623C182.139 518.167 176.323 506.88 173.773 495.251C168.894 472.996 175.007 449.045 189.015 431.229C195.932 422.354 204.893 415.284 215.133 410.62C225.708 405.898 237.261 403.778 248.824 404.437C260.356 405.016 271.543 408.561 281.303 414.728C290.034 420.371 299.874 432.331 292.753 442.914C290.091 446.871 285.67 449.282 281.081 450.272C275.815 451.297 270.367 450.822 265.357 448.903C253.951 444.875 243.402 435.875 230.634 437.239C227.852 437.527 225.184 438.501 222.87 440.073C221.268 441.16 219.766 438.562 221.356 437.483H221.356Z" fill="#2F2E41"/>
<path d="M657.085 205.201C654.775 203.717 652.957 201.582 651.861 199.065C650.765 196.548 650.44 193.762 650.927 191.061C651.414 188.359 652.692 185.863 654.597 183.887C656.503 181.911 658.952 180.545 661.635 179.961L774.623 155.365C776.307 155 778.067 155.318 779.517 156.25C780.967 157.181 781.988 158.65 782.356 160.333L781.868 160.44L782.356 160.333L785.496 174.755C785.678 175.589 785.693 176.451 785.542 177.291C785.39 178.131 785.075 178.933 784.613 179.651C784.152 180.369 783.554 180.99 782.853 181.477C782.151 181.964 781.361 182.308 780.527 182.489L667.539 207.085C667.049 207.192 666.554 207.273 666.056 207.327C662.91 207.67 659.742 206.919 657.085 205.201Z" fill="#E48D36"/>
<path d="M647.834 197.048C647.767 196.78 647.707 196.509 647.654 196.235C646.725 191.342 648.423 186.19 652.433 181.727C656.788 177.093 662.474 173.926 668.707 172.662L720.218 161.392C721.067 161.206 721.944 161.193 722.798 161.352C723.652 161.511 724.466 161.84 725.191 162.319C725.915 162.798 726.537 163.417 727.018 164.14C727.5 164.863 727.831 165.676 727.994 166.529L732.488 190.203C732.812 191.867 732.471 193.592 731.536 195.006C730.602 196.42 729.149 197.411 727.491 197.765L675.654 209.105C673.317 209.621 670.931 209.884 668.538 209.889C658.326 209.889 649.823 204.915 647.834 197.048Z" fill="#2F2E41"/>
<path d="M656.849 144.076C685.016 144.076 707.849 121.243 707.849 93.0764C707.849 64.9099 685.016 42.0764 656.849 42.0764C628.683 42.0764 605.849 64.9099 605.849 93.0764C605.849 121.243 628.683 144.076 656.849 144.076Z" fill="#E48D36"/>
<path d="M699.887 111.485C703.193 111.394 707.307 111.279 710.477 108.963C711.421 108.246 712.196 107.33 712.749 106.281C713.302 105.232 713.618 104.075 713.677 102.891C713.734 102.049 713.596 101.205 713.273 100.426C712.951 99.6465 712.452 98.9522 711.816 98.3974C710.161 96.9985 707.743 96.6704 705.138 97.436L707.837 77.7104L705.856 77.439L702.683 100.629L704.337 99.8696C706.256 98.9897 708.889 98.542 710.525 99.9248C710.927 100.286 711.24 100.736 711.44 101.238C711.64 101.74 711.722 102.282 711.678 102.82C711.63 103.702 711.392 104.562 710.981 105.344C710.57 106.125 709.996 106.809 709.297 107.348C706.83 109.15 703.551 109.382 699.831 109.486L699.887 111.485Z" fill="#2F2E41"/>
<path d="M694.408 79.4116H683.636V81.4116H694.408V79.4116Z" fill="#2F2E41"/>
<path d="M653.281 41.9256C652.906 35.8969 651.24 30.0192 648.395 24.6906C645.551 19.3619 641.594 14.7066 636.794 11.04C631.835 7.36737 626.111 4.85979 620.049 3.70364C613.987 2.5475 607.743 2.77252 601.779 4.362C595.855 5.90156 590.357 8.76607 585.7 12.7396C581.043 16.713 577.35 21.6918 574.897 27.3006C572.428 32.8676 571.197 38.9039 571.287 44.993C571.559 51.6147 573.204 58.1077 576.118 64.0601C579.125 70.6123 582.918 76.7594 586.212 83.1644C589.456 89.4803 592.255 96.0152 594.589 102.721C599.337 116.386 602.138 130.65 602.91 145.095C604.135 167.866 601.956 201.109 576.25 209.848C569.714 212.07 562.662 212.484 555.808 212.466C548.59 212.554 541.391 211.711 534.388 209.957C522.253 206.717 510.733 199.107 505.562 187.285C504.37 184.555 503.571 181.67 503.189 178.716C503.081 177.906 503.955 177.224 504.689 177.216C505.084 177.226 505.46 177.387 505.739 177.666C506.018 177.945 506.179 178.321 506.189 178.716C507.863 191.314 518.36 200.975 529.758 205.318C536.418 207.732 543.415 209.086 550.494 209.33C557.54 209.686 564.856 209.63 571.756 208.009C577.897 206.68 583.485 203.503 587.769 198.906C591.589 194.509 594.437 189.356 596.129 183.784C600.186 171.399 600.612 157.782 599.899 144.873C599.092 130.476 596.23 116.267 591.401 102.68C588.961 95.8195 586.019 89.1488 582.597 82.7218C579.254 76.4356 575.543 70.327 572.727 63.7746C569.978 57.7521 568.467 51.2389 568.282 44.6212C568.26 38.5096 569.477 32.4568 571.858 26.8281C574.199 21.1771 577.709 16.0852 582.157 11.8867C586.606 7.68821 591.892 4.47814 597.668 2.46725C603.546 0.421428 609.786 -0.372951 615.988 0.135099C622.191 0.64315 628.218 2.44241 633.684 5.41738C638.884 8.40633 643.439 12.3962 647.088 17.1563C650.736 21.9165 653.405 27.3526 654.939 33.1503C655.685 36.0219 656.135 38.9623 656.281 41.9256C656.38 43.8551 653.38 43.8498 653.281 41.9256H653.281Z" fill="#2F2E41"/>
<path d="M643.308 42.9788C642.489 37.4146 639.701 32.3288 635.451 28.6459C630.933 24.859 625.142 22.9367 619.256 23.2704C617.326 23.3669 617.331 20.3667 619.256 20.2704C625.653 19.982 631.933 22.0549 636.901 26.0948C641.869 30.1348 645.179 35.8599 646.201 42.1813C646.489 44.0699 643.599 44.8842 643.308 42.9788V42.9788Z" fill="#2F2E41"/>
<path d="M637.004 43.1523C636.547 41.7672 636.659 40.2572 637.315 38.9544C637.971 37.6517 639.118 36.6629 640.503 36.2056L654.746 31.5024C656.131 31.0451 657.642 31.1567 658.944 31.8127C660.247 32.4687 661.236 33.6154 661.693 35.0005C662.151 36.3855 662.039 37.8956 661.383 39.1983C660.727 40.5011 659.58 41.4899 658.195 41.9473L643.951 46.6504C643.266 46.8771 642.542 46.9664 641.821 46.9133C641.101 46.8602 640.398 46.6657 639.753 46.3408C639.108 46.016 638.533 45.5672 638.061 45.0201C637.59 44.473 637.231 43.8383 637.004 43.1524V43.1523Z" fill="#2F2E41"/>
<path d="M748.235 112.45C747.315 112.645 746.468 113.094 745.791 113.748C745.115 114.401 744.636 115.232 744.41 116.146C744.184 117.059 744.22 118.017 744.514 118.91C744.808 119.804 745.347 120.597 746.071 121.198L768.082 139.487C768.404 139.759 768.67 140.091 768.865 140.465C769.046 140.842 769.148 141.253 769.164 141.671L770.538 175.212C770.563 176.309 770.956 177.366 771.654 178.213C772.353 179.06 773.315 179.648 774.388 179.882L774.427 179.891C775.486 180.15 776.602 180.047 777.596 179.598C778.59 179.15 779.406 178.382 779.913 177.416L787.853 162.937C788.119 162.46 788.51 162.065 788.983 161.793C789.457 161.521 789.995 161.384 790.541 161.395C790.943 161.397 791.34 161.482 791.707 161.645C792.074 161.808 792.404 162.045 792.675 162.341L830.776 202.997C831.325 203.587 832.01 204.034 832.772 204.3C833.533 204.567 834.348 204.643 835.146 204.524C835.941 204.406 836.696 204.098 837.348 203.627C837.999 203.156 838.528 202.535 838.889 201.817L894.756 90.0453C895.178 89.2037 895.354 88.2601 895.264 87.3228C895.174 86.3855 894.822 85.4927 894.247 84.747C893.672 84.0013 892.898 83.4329 892.015 83.1074C891.131 82.7818 890.174 82.7122 889.252 82.9066L887.443 83.2847L748.235 112.45L748.235 112.45ZM747.343 119.662C746.909 119.3 746.586 118.824 746.411 118.287C746.236 117.75 746.215 117.175 746.352 116.627C746.488 116.079 746.776 115.581 747.183 115.189C747.589 114.797 748.098 114.527 748.651 114.411L887.816 85.2562L889.668 84.8675C890.219 84.7538 890.792 84.7974 891.32 84.9934C891.849 85.1893 892.311 85.5297 892.656 85.9757C893 86.4217 893.212 86.9555 893.268 87.5161C893.323 88.0768 893.22 88.6419 892.97 89.1469L837.104 200.919C836.887 201.35 836.57 201.723 836.178 202.006C835.786 202.288 835.332 202.472 834.854 202.541C834.376 202.611 833.889 202.564 833.433 202.405C832.977 202.245 832.566 201.978 832.236 201.626L794.135 160.971C793.763 160.565 793.323 160.225 792.835 159.968L889.648 89.7343C890.028 89.4639 890.303 89.0689 890.423 88.6177C890.543 88.1665 890.502 87.6874 890.307 87.2634C890.111 86.8393 889.773 86.4969 889.352 86.2954C888.931 86.0938 888.452 86.0458 888 86.1597C887.889 86.1861 887.781 86.2233 887.677 86.2708L770.128 138.742C769.901 138.45 769.641 138.184 769.354 137.951L747.343 119.662V119.662Z" fill="#CCCCCC"/>
<path d="M748.235 112.45C747.315 112.645 746.468 113.094 745.791 113.748C745.115 114.401 744.636 115.232 744.41 116.146C744.184 117.059 744.22 118.017 744.514 118.91C744.808 119.804 745.347 120.597 746.071 121.198L768.082 139.487C768.404 139.759 768.67 140.091 768.865 140.465C769.046 140.842 769.148 141.253 769.164 141.671L770.538 175.212C770.563 176.309 770.956 177.366 771.654 178.213C772.353 179.06 773.315 179.648 774.388 179.882L774.427 179.891C775.486 180.15 776.602 180.047 777.596 179.598C778.59 179.15 779.406 178.382 779.913 177.416L787.853 162.937C788.119 162.46 788.51 162.065 788.983 161.793C789.457 161.521 789.995 161.384 790.541 161.395C790.943 161.397 791.34 161.482 791.707 161.645C792.074 161.808 792.404 162.045 792.675 162.341L830.776 202.997C831.325 203.587 832.01 204.034 832.772 204.3C833.533 204.567 834.348 204.643 835.146 204.524C835.941 204.406 836.696 204.098 837.348 203.627C837.999 203.156 838.528 202.535 838.889 201.817L894.756 90.0453C895.178 89.2037 895.354 88.2601 895.264 87.3228C895.174 86.3855 894.822 85.4927 894.247 84.747C893.672 84.0013 892.898 83.4329 892.015 83.1074C891.131 82.7818 890.174 82.7122 889.252 82.9066L887.443 83.2847L748.235 112.45L748.235 112.45ZM747.343 119.662C746.909 119.3 746.586 118.824 746.411 118.287C746.236 117.75 746.215 117.175 746.352 116.627C746.488 116.079 746.776 115.581 747.183 115.189C747.589 114.797 748.098 114.527 748.651 114.411L887.816 85.2562L889.668 84.8675C890.219 84.7538 890.792 84.7974 891.32 84.9934C891.849 85.1893 892.311 85.5297 892.656 85.9757C893 86.4217 893.212 86.9555 893.268 87.5161C893.323 88.0768 893.22 88.6419 892.97 89.1469L837.104 200.919C836.887 201.35 836.57 201.723 836.178 202.006C835.786 202.288 835.332 202.472 834.854 202.541C834.376 202.611 833.889 202.564 833.433 202.405C832.977 202.245 832.566 201.978 832.236 201.626L794.135 160.971C793.763 160.565 793.323 160.225 792.835 159.968C792.137 159.594 791.359 159.395 790.567 159.39C790.455 159.386 790.341 159.39 790.227 159.395L790.218 159.393C789.368 159.437 788.545 159.697 787.825 160.149C787.104 160.601 786.512 161.229 786.102 161.974L778.161 176.464C777.857 177.045 777.366 177.507 776.767 177.775C776.169 178.043 775.497 178.1 774.861 177.938L774.842 177.934C774.196 177.798 773.616 177.447 773.197 176.938C772.778 176.429 772.545 175.792 772.535 175.133L771.162 141.592C771.151 141.238 771.1 140.886 771.01 140.542L771.013 140.533C770.928 140.203 770.808 139.884 770.656 139.58C770.51 139.282 770.333 139.002 770.128 138.742C769.901 138.45 769.641 138.184 769.354 137.951L747.343 119.662V119.662Z" fill="#3F3D56"/>
<path d="M770.128 138.742L887.677 86.2707C887.781 86.2232 887.889 86.186 888 86.1596C888.453 86.0457 888.931 86.0937 889.352 86.2952C889.774 86.4968 890.111 86.8392 890.307 87.2632C890.502 87.6873 890.543 88.1664 890.423 88.6176C890.303 89.0688 890.028 89.4638 889.648 89.7342L792.836 159.968L791.127 161.21L789.958 159.59L790.218 159.393L790.227 159.395L888.468 88.1123L771.013 140.533L771.011 140.542L770.499 140.764L769.684 138.938L770.128 138.742Z" fill="#3F3D56"/>
<path d="M623.264 297.96C621.805 297.962 620.407 298.542 619.376 299.573C618.345 300.604 617.765 302.002 617.764 303.46V323.46C617.765 324.918 618.345 326.316 619.376 327.347C620.407 328.378 621.805 328.958 623.264 328.96H687.264C688.722 328.958 690.12 328.378 691.151 327.347C692.182 326.316 692.762 324.918 692.764 323.46V303.46C692.762 302.002 692.182 300.604 691.151 299.573C690.12 298.542 688.722 297.962 687.264 297.96H623.264Z" fill="#2F2E41"/>
<path d="M615.718 196.51C612.663 205.367 612.093 214.892 614.071 224.05C619.157 248.984 617.263 278.461 612.264 309.96C612.264 313.274 614.572 315.96 617.419 315.96H695.608C698.456 315.96 700.764 313.274 700.764 309.96V216.46C700.764 188.83 681.981 166.22 658.49 165.02C657.837 164.98 657.175 164.96 656.514 164.96C638.187 164.96 622.428 177.99 615.718 196.51Z" fill="#2F2E41"/>
<path d="M640.62 317.861V202.227C640.62 198.545 642.082 195.015 644.685 192.412C647.288 189.809 650.819 188.347 654.5 188.347C658.181 188.347 661.712 189.809 664.315 192.412C666.918 195.015 668.38 198.545 668.38 202.227V317.861C668.378 319.584 667.693 321.236 666.474 322.455C665.255 323.673 663.603 324.359 661.88 324.361H647.12C645.397 324.359 643.745 323.673 642.526 322.455C641.307 321.236 640.622 319.584 640.62 317.861V317.861Z" fill="#E48D36"/>
<path d="M664.362 235.038L643.382 234.114C641.661 234.037 640.04 233.279 638.877 232.008C637.713 230.737 637.101 229.056 637.174 227.335L638.648 193.867C638.741 191.633 639.274 189.439 640.216 187.412C641.159 185.384 642.491 183.563 644.139 182.051C645.786 180.539 647.715 179.367 649.816 178.602C651.916 177.837 654.148 177.494 656.381 177.592C658.615 177.69 660.807 178.228 662.832 179.175C664.858 180.122 666.676 181.459 668.184 183.11C669.692 184.76 670.86 186.692 671.62 188.795C672.38 190.897 672.719 193.129 672.615 195.362L671.142 228.83C671.068 230.502 670.353 232.08 669.145 233.238C667.936 234.395 666.329 235.042 664.656 235.044C664.558 235.044 664.46 235.042 664.362 235.038Z" fill="#2F2E41"/>
<path d="M700.764 256.46C703.249 256.46 705.264 249.968 705.264 241.96C705.264 233.952 703.249 227.46 700.764 227.46C698.278 227.46 696.264 233.952 696.264 241.96C696.264 249.968 698.278 256.46 700.764 256.46Z" fill="#2F2E41"/>
<path d="M454.149 422.46C467.957 422.46 479.149 411.267 479.149 397.46C479.149 383.653 467.957 372.46 454.149 372.46C440.342 372.46 429.149 383.653 429.149 397.46C429.149 411.267 440.342 422.46 454.149 422.46Z" fill="#CCCCCC"/>
<path d="M701.378 422.46H509.378C507.256 422.46 505.221 421.617 503.721 420.117C502.221 418.616 501.378 416.582 501.378 414.46C501.378 412.338 502.221 410.303 503.721 408.803C505.221 407.303 507.256 406.46 509.378 406.46H701.378C703.5 406.46 705.534 407.303 707.035 408.803C708.535 410.303 709.378 412.338 709.378 414.46C709.378 416.582 708.535 418.616 707.035 420.117C705.534 421.617 703.5 422.46 701.378 422.46Z" fill="#CCCCCC"/>
<path d="M649.378 388.46H509.378C507.256 388.46 505.221 387.617 503.721 386.117C502.221 384.616 501.378 382.582 501.378 380.46C501.378 378.338 502.221 376.303 503.721 374.803C505.221 373.303 507.256 372.46 509.378 372.46H649.378C651.5 372.46 653.534 373.303 655.035 374.803C656.535 376.303 657.378 378.338 657.378 380.46C657.378 382.582 656.535 384.616 655.035 386.117C653.534 387.617 651.5 388.46 649.378 388.46Z" fill="#CCCCCC"/>
<path d="M454.149 517.46C467.957 517.46 479.149 506.267 479.149 492.46C479.149 478.653 467.957 467.46 454.149 467.46C440.342 467.46 429.149 478.653 429.149 492.46C429.149 506.267 440.342 517.46 454.149 517.46Z" fill="#CCCCCC"/>
<path d="M701.378 517.46H509.378C507.256 517.46 505.221 516.617 503.721 515.117C502.221 513.617 501.378 511.582 501.378 509.46C501.378 507.338 502.221 505.303 503.721 503.803C505.221 502.303 507.256 501.46 509.378 501.46H701.378C703.5 501.46 705.534 502.303 707.035 503.803C708.535 505.303 709.378 507.338 709.378 509.46C709.378 511.582 708.535 513.617 707.035 515.117C705.534 516.617 703.5 517.46 701.378 517.46Z" fill="#CCCCCC"/>
<path d="M649.378 483.46H509.378C507.256 483.46 505.221 482.617 503.721 481.117C502.221 479.617 501.378 477.582 501.378 475.46C501.378 473.338 502.221 471.303 503.721 469.803C505.221 468.303 507.256 467.46 509.378 467.46H649.378C651.5 467.46 653.534 468.303 655.035 469.803C656.535 471.303 657.378 473.338 657.378 475.46C657.378 477.582 656.535 479.617 655.035 481.117C653.534 482.617 651.5 483.46 649.378 483.46Z" fill="#CCCCCC"/>
<path d="M454.149 613.46C467.957 613.46 479.149 602.267 479.149 588.46C479.149 574.653 467.957 563.46 454.149 563.46C440.342 563.46 429.149 574.653 429.149 588.46C429.149 602.267 440.342 613.46 454.149 613.46Z" fill="#CCCCCC"/>
<path d="M701.378 613.46H509.378C507.256 613.46 505.221 612.617 503.721 611.117C502.221 609.617 501.378 607.582 501.378 605.46C501.378 603.338 502.221 601.303 503.721 599.803C505.221 598.303 507.256 597.46 509.378 597.46H701.378C703.5 597.46 705.534 598.303 707.035 599.803C708.535 601.303 709.378 603.338 709.378 605.46C709.378 607.582 708.535 609.617 707.035 611.117C705.534 612.617 703.5 613.46 701.378 613.46Z" fill="#CCCCCC"/>
<path d="M649.378 579.46H509.378C507.256 579.46 505.221 578.617 503.721 577.117C502.221 575.617 501.378 573.582 501.378 571.46C501.378 569.338 502.221 567.303 503.721 565.803C505.221 564.303 507.256 563.46 509.378 563.46H649.378C651.5 563.46 653.534 564.303 655.035 565.803C656.535 567.303 657.378 569.338 657.378 571.46C657.378 573.582 656.535 575.617 655.035 577.117C653.534 578.617 651.5 579.46 649.378 579.46Z" fill="#CCCCCC"/>
<path d="M768.264 658.46H370.264C365.757 658.455 361.435 656.662 358.248 653.475C355.061 650.288 353.269 645.967 353.264 641.46V344.46C353.269 339.953 355.061 335.632 358.248 332.445C361.435 329.258 365.757 327.465 370.264 327.46H768.264C772.771 327.465 777.092 329.258 780.279 332.445C783.466 335.632 785.259 339.953 785.264 344.46V641.46C785.259 645.967 783.466 650.288 780.279 653.475C777.092 656.662 772.771 658.455 768.264 658.46ZM370.264 329.46C366.287 329.464 362.474 331.046 359.662 333.858C356.85 336.67 355.268 340.483 355.264 344.46V641.46C355.268 645.437 356.85 649.249 359.662 652.062C362.474 654.874 366.287 656.455 370.264 656.46H768.264C772.241 656.455 776.053 654.874 778.865 652.062C781.677 649.249 783.259 645.437 783.264 641.46V344.46C783.259 340.483 781.677 336.67 778.865 333.858C776.053 331.046 772.241 329.464 768.264 329.46H370.264Z" fill="#3F3D56"/>
<path d="M360.264 388.46C391.192 388.46 416.264 363.388 416.264 332.46C416.264 301.532 391.192 276.46 360.264 276.46C329.336 276.46 304.264 301.532 304.264 332.46C304.264 363.388 329.336 388.46 360.264 388.46Z" fill="#E48D36"/>
<path d="M359.834 667.297C358.849 667.298 357.876 667.089 356.979 666.684H356.979L251.474 619.354C249.75 618.582 248.195 617.478 246.898 616.104C245.6 614.731 244.586 613.116 243.914 611.35C243.241 609.585 242.923 607.704 242.977 605.816C243.032 603.927 243.458 602.068 244.231 600.345C245.004 598.621 246.109 597.067 247.484 595.77C248.858 594.474 250.474 593.461 252.24 592.79C254.006 592.118 255.887 591.801 257.775 591.857C259.663 591.913 261.522 592.34 263.245 593.115L368.75 640.444C369.589 640.821 370.345 641.358 370.976 642.027C371.607 642.695 372.1 643.482 372.427 644.341C372.754 645.2 372.909 646.115 372.882 647.034C372.856 647.953 372.648 648.857 372.272 649.696L366.231 663.163C365.676 664.394 364.777 665.44 363.642 666.173C362.507 666.907 361.185 667.297 359.834 667.297V667.297Z" fill="#E48D36"/>
<path d="M359.329 796.46H103.671C103.493 796.46 103.322 796.355 103.197 796.167C103.071 795.98 103 795.725 103 795.46C103 795.195 103.071 794.94 103.197 794.753C103.322 794.565 103.493 794.46 103.671 794.46H359.329C359.507 794.46 359.678 794.565 359.803 794.753C359.929 794.94 360 795.195 360 795.46C360 795.725 359.929 795.98 359.803 796.167C359.678 796.355 359.507 796.46 359.329 796.46Z" fill="#3F3D56"/>
<path d="M373.359 310.63L359.93 324.059L346.502 310.63C344.328 308.457 340.804 308.457 338.63 310.63C336.457 312.804 336.457 316.328 338.63 318.502L352.059 331.93L338.63 345.359C336.459 347.534 336.462 351.059 338.638 353.23C340.811 355.399 344.329 355.399 346.502 353.23L359.93 339.802L373.359 353.23C375.534 355.402 379.059 355.399 381.23 353.223C383.399 351.05 383.399 347.532 381.23 345.359L367.802 331.93L381.23 318.502C383.404 316.328 383.404 312.804 381.23 310.63C379.057 308.457 375.532 308.457 373.359 310.63V310.63Z" fill="white"/>
<path d="M373.359 310.63L359.93 324.059L346.502 310.63C344.328 308.457 340.804 308.457 338.63 310.63C336.457 312.804 336.457 316.328 338.63 318.502L352.059 331.93L338.63 345.359C336.459 347.534 336.462 351.059 338.638 353.23C340.811 355.399 344.329 355.399 346.502 353.23L359.93 339.802L373.359 353.23C375.534 355.402 379.059 355.399 381.23 353.223C383.399 351.05 383.399 347.532 381.23 345.359L367.802 331.93L381.23 318.502C383.404 316.328 383.404 312.804 381.23 310.63C379.057 308.457 375.532 308.457 373.359 310.63V310.63Z" fill="white"/>
<path d="M459.857 388.711L454.001 394.568L448.144 388.711C447.196 387.763 445.659 387.763 444.711 388.711C443.763 389.659 443.763 391.196 444.711 392.144L450.568 398.001L444.711 403.857C443.764 404.806 443.765 406.343 444.714 407.291C445.662 408.236 447.197 408.236 448.144 407.291L454.001 401.434L459.857 407.291C460.806 408.238 462.343 408.236 463.291 407.287C464.236 406.34 464.236 404.805 463.291 403.857L457.434 398.001L463.291 392.144C464.239 391.196 464.239 389.659 463.291 388.711C462.343 387.763 460.805 387.763 459.857 388.711V388.711Z" fill="white"/>
<path d="M459.857 388.711L454.001 394.568L448.144 388.711C447.196 387.763 445.659 387.763 444.711 388.711C443.763 389.659 443.763 391.196 444.711 392.144L450.568 398.001L444.711 403.857C443.764 404.806 443.765 406.343 444.714 407.291C445.662 408.236 447.197 408.236 448.144 407.291L454.001 401.434L459.857 407.291C460.806 408.238 462.343 408.236 463.291 407.287C464.236 406.34 464.236 404.805 463.291 403.857L457.434 398.001L463.291 392.144C464.239 391.196 464.239 389.659 463.291 388.711C462.343 387.763 460.805 387.763 459.857 388.711V388.711Z" fill="white"/>
<path d="M459.857 483.711L454.001 489.568L448.144 483.711C447.196 482.763 445.659 482.763 444.711 483.711C443.763 484.659 443.763 486.196 444.711 487.144L450.568 493.001L444.711 498.857C443.764 499.806 443.765 501.343 444.714 502.291C445.662 503.236 447.197 503.236 448.144 502.291L454.001 496.434L459.857 502.291C460.806 503.238 462.343 503.236 463.291 502.287C464.236 501.34 464.236 499.805 463.291 498.857L457.434 493.001L463.291 487.144C464.239 486.196 464.239 484.659 463.291 483.711C462.343 482.763 460.805 482.763 459.857 483.711V483.711Z" fill="white"/>
<path d="M459.857 577.711L454.001 583.568L448.144 577.711C447.196 576.763 445.659 576.763 444.711 577.711C443.763 578.659 443.763 580.196 444.711 581.144L450.568 587.001L444.711 592.857C443.764 593.806 443.765 595.343 444.714 596.291C445.662 597.236 447.197 597.236 448.144 596.291L454.001 590.434L459.857 596.291C460.806 597.238 462.343 597.236 463.291 596.287C464.236 595.34 464.236 593.805 463.291 592.857L457.434 587.001L463.291 581.144C464.239 580.196 464.239 578.659 463.291 577.711C462.343 576.763 460.805 576.763 459.857 577.711V577.711Z" fill="white"/>
</g>
<defs>
<clipPath id="clip0_247_3422">
<rect width="895.287" height="796.46" fill="white"/>
</clipPath>
</defs>
</svg>
